<svg data-v-423bf9ae="" xmlns="http://www.w3.org/2000/svg" viewBox="0 0 494 90" class="iconLeftSlogan"><!----><!----><!----><g data-v-423bf9ae="" id="771233c3-6226-45f0-8d01-86ea0e54748c" fill="black" transform="matrix(13.683009548051917,0,0,13.683009548051917,125.06840170258539,-73.40934213983188)"><path d="M2.78 9.06L2.78 9.06L2.78 9.06Q3.10 8.88 3.15 9.19L3.15 9.19L3.15 9.19Q3.18 9.32 3.01 9.44L3.01 9.44L3.01 9.44Q2.94 9.50 2.87 9.53L2.87 9.53L2.87 9.53Q2.81 9.57 2.75 9.59L2.75 9.59L2.75 9.59Q2.60 9.66 2.47 9.69L2.47 9.69L2.47 9.69Q2.34 9.72 2.25 9.73L2.25 9.73L2.25 9.73Q2.07 9.75 1.87 9.75L1.87 9.75L1.87 9.75Q1.67 9.75 1.46 9.71L1.46 9.71L1.46 9.71Q1.01 9.65 0.74 9.41L0.74 9.41L0.74 9.41Q0.49 9.19 0.32 8.89L0.32 8.89L0.32 8.89Q0.16 8.59 0.05 8.29L0.05 8.29L0.04 8.24L0.04 8.24Q-0.02 8.05-0.00 7.80L-0.00 7.80L-0.00 7.80Q0.01 7.56 0.01 7.35L0.01 7.35L0.01 7.35Q0.01 7.18 0.01 7.06L0.01 7.06L0.01 7.06Q0.02 6.93 0.05 6.84L0.05 6.84L0.05 6.84Q0.10 6.67 0.27 6.38L0.27 6.38L0.27 6.38Q0.45 6.05 0.68 5.81L0.68 5.81L0.68 5.81Q0.92 5.57 1.31 5.49L1.31 5.49L1.31 5.49Q1.42 5.48 1.67 5.41L1.67 5.41L1.67 5.41Q1.74 5.39 1.84 5.37L1.84 5.37L1.84 5.37Q1.93 5.36 2.04 5.37L2.04 5.37L2.04 5.37Q2.13 5.37 2.25 5.39L2.25 5.39L2.25 5.39Q2.37 5.41 2.53 5.44L2.53 5.44L2.53 5.44Q2.64 5.48 2.86 5.58L2.86 5.58L2.86 5.58Q3.08 5.67 3.12 5.82L3.12 5.82L3.12 5.82Q3.13 5.88 3.10 5.94L3.10 5.94L3.10 5.94Q3.04 6.04 2.96 6.06L2.96 6.06L2.96 6.06Q2.91 6.08 2.84 6.06L2.84 6.06L2.84 6.06Q2.77 6.05 2.67 6.00L2.67 6.00L2.67 6.00Q2.53 5.93 2.41 5.88L2.41 5.88L2.41 5.88Q2.30 5.83 2.18 5.81L2.18 5.81L2.18 5.81Q2.06 5.78 1.93 5.79L1.93 5.79L1.93 5.79Q1.80 5.80 1.65 5.84L1.65 5.84L1.65 5.84Q1.30 5.95 1.16 6.02L1.16 6.02L1.16 6.02Q1.00 6.10 0.80 6.41L0.80 6.41L0.80 6.41Q0.64 6.65 0.55 6.91L0.55 6.91L0.55 6.91Q0.46 7.18 0.45 7.45L0.45 7.45L0.45 7.45Q0.44 7.73 0.50 8.00L0.50 8.00L0.50 8.00Q0.55 8.28 0.68 8.53L0.68 8.53L0.68 8.54L0.68 8.54L0.68 8.54Q0.98 9.08 1.52 9.22L1.52 9.22L1.52 9.22Q1.92 9.32 2.14 9.26L2.14 9.26L2.14 9.26Q2.20 9.26 2.26 9.24L2.26 9.24L2.26 9.24Q2.31 9.23 2.37 9.21L2.37 9.21L2.37 9.21Q2.60 9.17 2.78 9.06ZM7.43 5.67L7.43 5.67L7.43 5.67Q7.57 5.82 7.66 5.99L7.66 5.99L7.66 5.99Q7.75 6.16 7.83 6.34L7.83 6.34L7.83 6.34Q7.93 6.54 7.89 6.74L7.89 6.74L7.89 6.74Q7.85 6.94 7.67 7.13L7.67 7.13L7.67 7.13Q7.53 7.28 7.19 7.37L7.19 7.37L7.19 7.37Q7.07 7.40 6.93 7.44L6.93 7.44L6.93 7.44Q6.79 7.48 6.73 7.60L6.73 7.60L6.73 7.60Q6.69 7.72 6.75 7.84L6.75 7.84L6.75 7.84Q6.82 7.97 6.86 8.05L6.86 8.05L6.86 8.05Q6.90 8.13 6.93 8.18L6.93 8.18L6.93 8.18Q6.97 8.24 7.02 8.33L7.02 8.33L7.02 8.33Q7.08 8.42 7.15 8.52L7.15 8.52L7.15 8.52Q7.31 8.74 7.48 8.93L7.48 8.93L7.48 8.93Q7.66 9.13 7.83 9.30L7.83 9.30L7.87 9.34L7.87 9.34Q8.02 9.49 7.88 9.63L7.88 9.63L7.88 9.63Q7.72 9.79 7.57 9.64L7.57 9.64L7.57 9.64Q7.46 9.52 7.37 9.43L7.37 9.43L7.37 9.43Q7.28 9.34 7.21 9.26L7.21 9.26L7.21 9.26Q7.04 9.05 6.90 8.83L6.90 8.83L6.90 8.83Q6.79 8.67 6.69 8.53L6.69 8.53L6.69 8.53Q6.58 8.39 6.49 8.23L6.49 8.23L6.49 8.23Q6.21 7.74 5.81 7.58L5.81 7.58L5.81 7.58Q5.38 7.42 5.18 7.70L5.18 7.70L5.18 7.70Q5.12 7.80 5.12 7.92L5.12 7.92L5.12 9.40L5.12 9.49L5.12 9.49Q5.12 9.69 4.91 9.70L4.91 9.70L4.91 9.70Q4.70 9.69 4.70 9.44L4.70 9.44L4.70 9.44Q4.70 9.28 4.71 9.12L4.71 9.12L4.71 9.12Q4.72 8.95 4.72 8.76L4.72 8.76L4.72 8.76Q4.73 8.63 4.72 8.49L4.72 8.49L4.72 8.49Q4.71 8.35 4.71 8.22L4.71 8.22L4.71 8.22Q4.71 8.09 4.72 7.96L4.72 7.96L4.72 7.96Q4.72 7.83 4.72 7.70L4.72 7.70L4.72 7.70Q4.73 7.40 4.70 7.07L4.70 7.07L4.70 7.07Q4.70 6.84 4.71 6.61L4.71 6.61L4.71 6.61Q4.72 6.38 4.72 6.14L4.72 6.14L4.72 6.14Q4.71 6.02 4.71 5.86L4.71 5.86L4.71 5.86Q4.71 5.71 4.75 5.58L4.75 5.58L4.75 5.58Q4.87 5.42 5.33 5.42L5.33 5.42L5.54 5.42L5.54 5.42Q5.79 5.42 6.04 5.44L6.04 5.44L6.04 5.44Q6.29 5.46 6.54 5.45L6.54 5.45L6.54 5.45Q7.10 5.42 7.43 5.67ZM5.51 7.15L5.51 7.15L5.51 7.15Q5.77 7.16 5.97 7.16L5.97 7.16L5.97 7.16Q6.17 7.16 6.30 7.14L6.30 7.14L6.30 7.14Q6.43 7.13 6.59 7.11L6.59 7.11L6.59 7.11Q6.75 7.09 6.95 7.05L6.95 7.05L6.95 7.05Q7.33 6.97 7.45 6.69L7.45 6.69L7.45 6.69Q7.50 6.59 7.49 6.47L7.49 6.47L7.49 6.47Q7.47 6.34 7.41 6.24L7.41 6.24L7.41 6.24Q7.34 6.14 7.24 6.07L7.24 6.07L7.24 6.07Q7.14 6.00 7.03 5.94L7.03 5.94L7.03 5.94Q6.91 5.89 6.80 5.87L6.80 5.87L6.80 5.87Q6.51 5.82 6.23 5.83L6.23 5.83L6.23 5.83Q5.95 5.84 5.66 5.82L5.66 5.82L5.66 5.82Q5.61 5.82 5.55 5.82L5.55 5.82L5.55 5.82Q5.50 5.82 5.45 5.82L5.45 5.82L5.45 5.82Q5.30 5.81 5.23 5.89L5.23 5.89L5.23 5.89Q5.17 5.96 5.18 6.08L5.18 6.08L5.18 6.08Q5.19 6.12 5.19 6.23L5.19 6.23L5.19 6.23Q5.18 6.33 5.16 6.43L5.16 6.43L5.16 6.43Q5.15 6.52 5.14 6.62L5.14 6.62L5.14 6.62Q5.10 6.88 5.20 7.01L5.20 7.01L5.20 7.01Q5.29 7.14 5.51 7.15ZM9.93 9.70L9.93 9.70L9.93 9.70Q9.71 9.67 9.71 9.44L9.71 9.44L9.71 9.44Q9.71 9.07 9.71 8.72L9.71 8.72L9.71 8.72Q9.71 8.36 9.71 7.99L9.71 7.99L9.71 7.99Q9.71 7.79 9.73 7.58L9.73 7.58L9.73 7.58Q9.74 7.43 9.74 7.30L9.74 7.30L9.74 7.30Q9.74 7.17 9.73 7.06L9.73 7.06L9.73 7.06Q9.73 6.99 9.72 6.90L9.72 6.90L9.72 6.90Q9.71 6.80 9.71 6.67L9.71 6.67L9.71 6.67Q9.71 6.60 9.71 6.51L9.71 6.51L9.71 6.51Q9.71 6.41 9.72 6.28L9.72 6.28L9.72 6.28Q9.73 6.19 9.73 6.11L9.73 6.11L9.73 6.11Q9.73 6.04 9.73 5.99L9.73 5.99L9.73 5.84L9.73 5.83L9.73 5.78L9.73 5.78Q9.71 5.61 9.74 5.54L9.74 5.54L9.74 5.54Q9.76 5.49 9.83 5.44L9.83 5.44L9.83 5.44Q10.10 5.30 10.16 5.61L10.16 5.61L10.16 5.61Q10.21 5.84 10.22 6.07L10.22 6.07L10.22 6.07Q10.23 6.29 10.21 6.51L10.21 6.51L10.21 6.51L10.21 6.51Q10.19 6.73 10.20 6.94L10.20 6.94L10.20 6.94Q10.21 7.15 10.19 7.36L10.19 7.36L10.19 7.36Q10.17 7.55 10.16 7.68L10.16 7.68L10.16 7.68Q10.14 7.82 10.14 7.92L10.14 7.92L10.14 7.92Q10.12 8.05 10.12 8.20L10.12 8.20L10.12 8.20Q10.12 8.35 10.13 8.51L10.13 8.51L10.13 8.51Q10.14 8.54 10.14 8.59L10.14 8.59L10.14 8.59Q10.14 8.63 10.14 8.70L10.14 8.70L10.14 8.70Q10.14 8.80 10.14 8.91L10.14 8.91L10.14 8.91Q10.14 9.02 10.14 9.13L10.14 9.13L10.14 9.13Q10.14 9.20 10.15 9.27L10.15 9.27L10.15 9.27Q10.15 9.33 10.14 9.40L10.14 9.40L10.14 9.40Q10.14 9.54 10.14 9.55L10.14 9.55L10.14 9.55Q10.11 9.68 9.93 9.70ZM15.03 9.08L15.03 9.08L15.03 9.08Q14.92 9.23 14.81 9.34L14.81 9.34L14.81 9.34Q14.70 9.45 14.59 9.53L14.59 9.53L14.59 9.53Q14.47 9.60 14.33 9.66L14.33 9.66L14.33 9.66Q14.19 9.71 14.01 9.73L14.01 9.73L14.01 9.73Q13.92 9.74 13.83 9.74L13.83 9.74L13.83 9.74Q13.73 9.75 13.62 9.73L13.62 9.73L13.62 9.73Q13.47 9.72 13.33 9.72L13.33 9.72L13.33 9.72Q13.19 9.72 13.04 9.69L13.04 9.69L13.04 9.69Q12.71 9.61 12.49 9.46L12.49 9.46L12.49 9.46Q12.27 9.31 12.15 9.07L12.15 9.07L12.15 9.07Q12.00 8.74 12.33 8.73L12.33 8.73L12.33 8.73Q12.38 8.73 12.45 8.81L12.45 8.81L12.45 8.81Q12.52 8.89 12.56 8.93L12.56 8.93L12.56 8.93Q12.71 9.07 12.73 9.08L12.73 9.08L12.74 9.08L12.74 9.09L12.74 9.09Q13.07 9.32 13.62 9.32L13.62 9.32L13.63 9.32L13.64 9.32L13.64 9.32Q13.87 9.32 14.23 9.23L14.23 9.23L14.23 9.23Q14.59 9.14 14.70 8.87L14.70 8.87L14.70 8.87Q14.77 8.70 14.70 8.51L14.70 8.51L14.70 8.50L14.70 8.50Q14.53 8.14 14.04 8.02L14.04 8.02L13.20 7.80L13.20 7.80Q13.02 7.76 12.77 7.63L12.77 7.63L12.77 7.63Q12.64 7.56 12.54 7.51L12.54 7.51L12.54 7.51Q12.45 7.45 12.39 7.40L12.39 7.40L12.39 7.40Q12.11 7.19 12.06 6.99L12.06 6.99L12.06 6.99Q12.05 6.95 12.05 6.89L12.05 6.89L12.05 6.89Q12.05 6.83 12.05 6.74L12.05 6.74L12.05 6.74Q12.05 6.64 12.07 6.55L12.07 6.55L12.07 6.55Q12.08 6.46 12.09 6.36L12.09 6.36L12.09 6.36Q12.13 6.04 12.36 5.80L12.36 5.80L12.36 5.80Q12.46 5.69 12.61 5.62L12.61 5.62L12.61 5.62Q12.76 5.55 12.89 5.49L12.89 5.49L12.89 5.49Q13.08 5.40 13.29 5.40L13.29 5.40L13.29 5.40Q13.50 5.39 13.71 5.40L13.71 5.40L13.71 5.40Q14.38 5.42 14.75 5.87L14.75 5.87L14.75 5.87Q14.92 6.08 14.88 6.22L14.88 6.22L14.83 6.26L14.83 6.26Q14.72 6.32 14.57 6.19L14.57 6.19L14.57 6.19Q14.53 6.16 14.50 6.13L14.50 6.13L14.50 6.13Q14.46 6.09 14.43 6.06L14.43 6.06L14.43 6.06Q14.40 6.02 14.34 5.98L14.34 5.98L14.34 5.98Q14.29 5.95 14.22 5.91L14.22 5.91L14.21 5.90L14.18 5.90L14.18 5.90Q13.93 5.82 13.67 5.81L13.67 5.81L13.67 5.81Q13.41 5.80 13.13 5.86L13.13 5.86L13.13 5.86Q12.79 5.93 12.61 6.14L12.61 6.14L12.61 6.14Q12.43 6.34 12.43 6.67L12.43 6.67L12.43 6.69L12.44 6.70L12.44 6.70Q12.47 7.12 13.10 7.30L13.10 7.30L13.30 7.36L13.80 7.53L13.80 7.53Q13.92 7.57 14.03 7.62L14.03 7.62L14.03 7.62Q14.15 7.67 14.28 7.72L14.28 7.72L14.28 7.72Q14.47 7.81 14.64 7.90L14.64 7.90L14.64 7.90Q14.80 7.98 14.94 8.07L14.94 8.07L14.94 8.07Q15.03 8.13 15.08 8.22L15.08 8.22L15.08 8.22Q15.13 8.31 15.15 8.41L15.15 8.41L15.15 8.41Q15.17 8.51 15.17 8.62L15.17 8.62L15.17 8.62Q15.16 8.73 15.14 8.82L15.14 8.82L15.14 8.82Q15.13 8.89 15.10 8.96L15.10 8.96L15.10 8.96Q15.07 9.03 15.03 9.08ZM17.24 7.99L17.24 7.99L17.24 7.99Q17.25 8.16 17.24 8.33L17.24 8.33L17.24 8.33Q17.23 8.50 17.24 8.67L17.24 8.67L17.24 8.67Q17.25 9.21 17.24 9.49L17.24 9.49L17.24 9.49Q17.24 9.61 17.14 9.67L17.14 9.67L17.14 9.67Q17.03 9.73 16.95 9.68L16.95 9.68L16.95 9.68Q16.86 9.65 16.85 9.52L16.85 9.52L16.85 9.52Q16.84 9.30 16.83 9.08L16.83 9.08L16.83 9.08Q16.82 8.87 16.82 8.64L16.82 8.64L16.82 8.64Q16.83 8.37 16.83 8.09L16.83 8.09L16.83 8.09Q16.84 7.82 16.84 7.53L16.84 7.53L16.84 7.53Q16.84 7.37 16.84 7.20L16.84 7.20L16.84 7.20Q16.84 7.03 16.84 6.87L16.84 6.87L16.84 6.87Q16.84 6.68 16.83 6.47L16.83 6.47L16.83 6.47Q16.83 6.26 16.84 6.03L16.84 6.03L16.84 6.03Q16.85 5.99 16.85 5.93L16.85 5.93L16.85 5.93Q16.85 5.87 16.85 5.78L16.85 5.78L16.85 5.78Q16.85 5.63 16.86 5.61L16.86 5.61L16.86 5.61Q16.86 5.55 16.97 5.48L16.97 5.48L16.97 5.48Q17.06 5.42 17.34 5.41L17.34 5.41L17.34 5.41Q17.47 5.40 17.57 5.40L17.57 5.40L17.57 5.40Q17.67 5.39 17.74 5.39L17.74 5.39L17.74 5.39Q17.92 5.39 18.12 5.40L18.12 5.40L18.12 5.40Q18.31 5.41 18.51 5.42L18.51 5.42L18.51 5.42Q18.62 5.43 18.75 5.44L18.75 5.44L18.75 5.44Q18.89 5.45 19.04 5.48L19.04 5.48L19.04 5.48Q19.36 5.52 19.54 5.66L19.54 5.66L19.54 5.66L19.54 5.66Q19.78 5.86 19.90 6.09L19.90 6.09L19.90 6.09Q20.02 6.32 20.00 6.61L20.00 6.61L20.00 6.61Q20.00 6.81 19.91 6.96L19.91 6.96L19.91 6.96Q19.82 7.10 19.66 7.21L19.66 7.21L19.66 7.21Q19.37 7.42 19.02 7.49L19.02 7.49L19.02 7.49Q19.04 7.48 18.92 7.51L18.92 7.51L18.92 7.51Q18.72 7.54 18.51 7.53L18.51 7.53L18.51 7.53Q18.30 7.52 18.09 7.55L18.09 7.55L18.09 7.55Q18.03 7.55 17.93 7.56L17.93 7.56L17.93 7.56Q17.84 7.56 17.71 7.55L17.71 7.55L17.71 7.55Q17.47 7.54 17.36 7.62L17.36 7.62L17.36 7.62Q17.23 7.72 17.24 7.99ZM18.31 7.12L18.38 7.12L18.38 7.12Q18.64 7.12 18.89 7.10L18.89 7.10L18.89 7.10Q19.15 7.07 19.39 6.89L19.39 6.89L19.39 6.89Q19.64 6.70 19.59 6.44L19.59 6.44L19.59 6.44Q19.54 6.18 19.30 6.02L19.30 6.02L19.30 6.02Q19.25 5.97 19.18 5.94L19.18 5.94L19.18 5.94Q19.11 5.91 19.03 5.89L19.03 5.89L19.03 5.89Q18.68 5.81 18.38 5.85L18.38 5.85L18.38 5.85Q18.23 5.87 18.07 5.88L18.07 5.88L18.07 5.88Q17.92 5.89 17.75 5.89L17.75 5.89L17.75 5.89Q17.67 5.89 17.61 5.88L17.61 5.88L17.61 5.88Q17.55 5.88 17.51 5.87L17.51 5.87L17.51 5.87Q17.47 5.86 17.44 5.87L17.44 5.87L17.44 5.87Q17.27 5.91 17.25 6.17L17.25 6.17L17.25 6.17Q17.25 6.23 17.24 6.32L17.24 6.32L17.24 6.32Q17.24 6.41 17.24 6.52L17.24 6.52L17.24 6.52Q17.25 6.56 17.25 6.61L17.25 6.61L17.25 6.61Q17.25 6.66 17.25 6.73L17.25 6.73L17.25 6.73Q17.26 6.97 17.40 7.08L17.40 7.08L17.40 7.08Q17.53 7.19 17.85 7.18L17.85 7.18L17.85 7.18Q17.96 7.17 18.08 7.16L18.08 7.16L18.08 7.16Q18.19 7.14 18.31 7.12L18.31 7.12ZM21.80 9.70L21.80 9.70L21.80 9.70Q21.58 9.67 21.58 9.44L21.58 9.44L21.58 9.44Q21.57 9.07 21.57 8.72L21.57 8.72L21.57 8.72Q21.57 8.36 21.57 7.99L21.57 7.99L21.57 7.99Q21.57 7.79 21.59 7.58L21.59 7.58L21.59 7.58Q21.61 7.43 21.61 7.30L21.61 7.30L21.61 7.30Q21.61 7.17 21.60 7.06L21.60 7.06L21.60 7.06Q21.59 6.99 21.59 6.90L21.59 6.90L21.59 6.90Q21.58 6.80 21.57 6.67L21.57 6.67L21.57 6.67Q21.57 6.60 21.58 6.51L21.58 6.51L21.58 6.51Q21.58 6.41 21.59 6.28L21.59 6.28L21.59 6.28Q21.59 6.19 21.60 6.11L21.60 6.11L21.60 6.11Q21.60 6.04 21.60 5.99L21.60 5.99L21.60 5.84L21.60 5.83L21.60 5.78L21.60 5.78Q21.58 5.61 21.61 5.54L21.61 5.54L21.61 5.54Q21.63 5.49 21.70 5.44L21.70 5.44L21.70 5.44Q21.96 5.30 22.03 5.61L22.03 5.61L22.03 5.61Q22.08 5.84 22.09 6.07L22.09 6.07L22.09 6.07Q22.10 6.29 22.08 6.51L22.08 6.51L22.08 6.51L22.08 6.51Q22.06 6.73 22.07 6.94L22.07 6.94L22.07 6.94Q22.08 7.15 22.06 7.36L22.06 7.36L22.06 7.36Q22.04 7.55 22.03 7.68L22.03 7.68L22.03 7.68Q22.01 7.82 22.00 7.92L22.00 7.92L22.00 7.92Q21.99 8.05 21.99 8.20L21.99 8.20L21.99 8.20Q21.99 8.35 22.00 8.51L22.00 8.51L22.00 8.51Q22.00 8.54 22.00 8.59L22.00 8.59L22.00 8.59Q22.00 8.63 22.00 8.70L22.00 8.70L22.00 8.70Q22.00 8.80 22.00 8.91L22.00 8.91L22.00 8.91Q22.00 9.02 22.01 9.13L22.01 9.13L22.01 9.13Q22.01 9.20 22.02 9.27L22.02 9.27L22.02 9.27Q22.02 9.33 22.01 9.40L22.01 9.40L22.01 9.40Q22.01 9.54 22.00 9.55L22.00 9.55L22.00 9.55Q21.98 9.68 21.80 9.70ZM25.83 6.51L25.83 6.51L25.83 6.51Q25.93 6.34 26.06 6.17L26.06 6.17L26.06 6.17Q26.19 6.01 26.30 5.83L26.30 5.83L26.30 5.83Q26.36 5.75 26.43 5.64L26.43 5.64L26.43 5.64Q26.50 5.54 26.58 5.48L26.58 5.48L26.58 5.48Q26.65 5.43 26.76 5.46L26.76 5.46L26.76 5.46Q27.00 5.51 26.84 5.78L26.84 5.78L26.84 5.78Q26.74 5.94 26.61 6.09L26.61 6.09L26.61 6.09Q26.49 6.25 26.39 6.42L26.39 6.42L26.39 6.42Q26.31 6.54 26.21 6.70L26.21 6.70L26.21 6.70Q26.10 6.86 25.96 7.05L25.96 7.05L25.96 7.05Q25.85 7.21 25.71 7.44L25.71 7.44L25.71 7.44Q25.57 7.68 25.66 7.85L25.66 7.85L25.66 7.85Q25.69 7.94 25.79 8.06L25.79 8.06L25.79 8.06Q25.89 8.18 25.95 8.25L25.95 8.25L26.17 8.53L26.17 8.53Q26.30 8.73 26.42 8.94L26.42 8.94L26.42 8.94Q26.54 9.15 26.67 9.34L26.67 9.34L26.70 9.39L26.70 9.39Q26.82 9.57 26.63 9.67L26.63 9.67L26.63 9.67Q26.45 9.78 26.33 9.60L26.33 9.60L26.33 9.60Q26.20 9.39 26.07 9.17L26.07 9.17L26.07 9.17Q25.94 8.96 25.83 8.73L25.83 8.73L25.83 8.72L25.83 8.72Q25.77 8.61 25.72 8.54L25.72 8.54L25.72 8.54Q25.67 8.46 25.63 8.42L25.63 8.42L25.63 8.42Q25.50 8.28 25.35 8.29L25.35 8.29L25.35 8.29Q25.17 8.32 25.04 8.61L25.04 8.61L25.04 8.61Q24.96 8.78 24.90 8.90L24.90 8.90L24.90 8.90Q24.84 9.02 24.81 9.07L24.81 9.07L24.81 9.07Q24.73 9.21 24.65 9.34L24.65 9.34L24.65 9.34Q24.57 9.47 24.49 9.60L24.49 9.60L24.49 9.60Q24.38 9.78 24.19 9.67L24.19 9.67L24.19 9.67Q24.00 9.56 24.12 9.39L24.12 9.39L24.12 9.39Q24.23 9.19 24.36 9.01L24.36 9.01L24.36 9.01Q24.49 8.83 24.63 8.65L24.63 8.65L24.64 8.63L24.64 8.63L24.64 8.63Q24.73 8.48 24.79 8.37L24.79 8.37L24.79 8.37Q24.85 8.26 24.88 8.19L24.88 8.19L24.88 8.19Q24.91 8.13 24.95 8.05L24.95 8.05L24.95 8.05Q24.99 7.96 25.02 7.88L25.02 7.88L25.02 7.88Q25.05 7.79 25.06 7.71L25.06 7.71L25.06 7.71Q25.07 7.62 25.04 7.55L25.04 7.55L25.04 7.54L25.04 7.54Q24.87 7.14 24.63 6.78L24.63 6.78L24.63 6.78Q24.38 6.42 24.14 6.06L24.14 6.06L24.01 5.85L24.01 5.85Q23.95 5.78 23.94 5.72L23.94 5.72L23.94 5.72Q23.92 5.66 23.92 5.62L23.92 5.62L23.92 5.62Q23.93 5.48 24.07 5.43L24.07 5.43L24.07 5.43Q24.23 5.39 24.30 5.54L24.30 5.54L24.42 5.77L24.42 5.77Q24.46 5.85 24.51 5.92L24.51 5.92L24.51 5.92Q24.55 6.00 24.60 6.06L24.60 6.06L24.60 6.06Q24.76 6.26 24.96 6.67L24.96 6.67L24.96 6.67Q25.03 6.78 25.10 6.91L25.10 6.91L25.10 6.91Q25.17 7.03 25.31 7.05L25.31 7.05L25.31 7.05Q25.46 7.08 25.61 6.89L25.61 6.89L25.61 6.89Q25.66 6.83 25.71 6.73L25.71 6.73L25.71 6.73Q25.76 6.64 25.83 6.51Z"></path></g><!----><g data-v-423bf9ae="" id="50de7321-6ff3-42db-ade8-1cebc6a46482" transform="matrix(2.039706256902273,0,0,2.039706256902273,-48.72430927511728,-49.224313165548224)" stroke="none" fill="black"><path d="M61.031 50c0-6.092-4.939-11.031-11.031-11.031-6.092 0-11.031 4.939-11.031 11.031 0 6.092 4.939 11.031 11.031 11.031 6.092 0 11.031-4.939 11.031-11.031zM50 53.677a3.677 3.677 0 1 1 0-7.353 3.677 3.677 0 0 1 0 7.353z"></path><circle cx="35.292" cy="64.708" r="3.677"></circle><path d="M72.062 46.323A3.677 3.677 0 0 0 68.385 50v11.031H57.354a3.677 3.677 0 1 0 0 7.354h14.708a3.677 3.677 0 0 0 3.677-3.677V50a3.677 3.677 0 0 0-3.677-3.677zM31.615 38.969h11.031a3.677 3.677 0 0 0 3.677-3.677v-3.677H50a3.677 3.677 0 1 0 0-7.354h-7.354a3.677 3.677 0 0 0-3.677 3.677v3.677H27.938a3.677 3.677 0 0 0-3.677 3.677V50a3.677 3.677 0 1 0 7.354 0V38.969z"></path></g><!----><g data-v-423bf9ae="" id="fa56fb96-f64a-4139-b485-28be59950a5b" fill="black" transform="matrix(0.676302660669528,0,0,0.676302660669528,124.04640721078292,56.8010869023858)"><path d="M10.54 5.74L10.54 5.74L10.54 5.74Q10.58 5.98 10.61 6.07L10.61 6.07L10.61 6.07Q10.63 6.16 10.63 6.31L10.63 6.31L10.63 6.31Q10.63 6.78 10.42 7.18L10.42 7.18L10.42 7.18Q10.22 7.57 9.87 7.74L9.87 7.74L9.87 7.74Q9.59 7.36 9.18 7.09L9.18 7.09L9.18 7.09Q8.78 6.82 8.29 6.64L8.29 6.64L8.29 6.64Q7.81 6.47 7.29 6.38L7.29 6.38L7.29 6.38Q6.78 6.30 6.29 6.30L6.29 6.30L6.29 6.30Q5.80 6.30 5.37 6.38L5.37 6.38L5.37 6.38Q4.94 6.45 4.61 6.59L4.61 6.59L4.61 6.59Q4.28 6.72 4.09 6.92L4.09 6.92L4.09 6.92Q3.91 7.11 3.91 7.36L3.91 7.36L3.91 7.36Q3.95 7.67 4.28 7.99L4.28 7.99L4.28 7.99Q4.62 8.30 5.11 8.60L5.11 8.60L5.11 8.60Q5.60 8.90 6.20 9.20L6.20 9.20L6.20 9.20Q6.79 9.49 7.36 9.76L7.36 9.76L7.36 9.76Q8.08 10.09 8.60 10.38L8.60 10.38L8.60 10.38Q9.11 10.67 9.45 11.01L9.45 11.01L9.45 11.01Q9.79 11.35 9.95 11.79L9.95 11.79L9.95 11.79Q10.12 12.22 10.12 12.84L10.12 12.84L10.12 12.84Q10.12 13.55 9.88 14.18L9.88 14.18L9.88 14.18Q9.65 14.80 9.19 15.26L9.19 15.26L9.19 15.26Q8.74 15.72 8.09 15.98L8.09 15.98L8.09 15.98Q7.45 16.24 6.65 16.24L6.65 16.24L6.65 16.24Q5.87 16.24 4.96 16.00L4.96 16.00L4.96 16.00Q4.05 15.76 3.25 15.35L3.25 15.35L3.25 15.35Q2.46 14.94 1.94 14.40L1.94 14.40L1.94 14.40Q1.41 13.86 1.41 13.26L1.41 13.26L1.41 13.26Q1.41 12.98 1.57 12.54L1.57 12.54L1.57 12.54Q1.74 12.11 2.16 11.63L2.16 11.63L2.16 11.63Q2.20 12.05 2.61 12.63L2.61 12.63L2.61 12.63Q3.02 13.20 3.85 13.69L3.85 13.69L3.85 13.69Q4.62 14.14 5.44 14.34L5.44 14.34L5.44 14.34Q6.26 14.55 6.97 14.55L6.97 14.55L6.97 14.55Q7.76 14.55 8.25 14.35L8.25 14.35L8.25 14.35Q8.74 14.15 9.02 13.88L9.02 13.88L9.02 13.88Q9.30 13.61 9.41 13.33L9.41 13.33L9.41 13.33Q9.52 13.05 9.53 12.88L9.53 12.88L9.53 12.88Q9.52 12.60 9.28 12.34L9.28 12.34L9.28 12.34Q9.03 12.08 8.62 11.84L8.62 11.84L8.62 11.84Q8.20 11.59 7.66 11.34L7.66 11.34L7.66 11.34Q7.11 11.09 6.52 10.84L6.52 10.84L6.52 10.84Q5.64 10.44 5.00 10.10L5.00 10.10L5.00 10.10Q4.37 9.76 3.96 9.40L3.96 9.40L3.96 9.40Q3.54 9.04 3.35 8.65L3.35 8.65L3.35 8.65Q3.16 8.26 3.16 7.76L3.16 7.76L3.16 7.76Q3.16 6.97 3.64 6.27L3.64 6.27L3.64 6.27Q4.12 5.57 5.01 5.21L5.01 5.21L5.01 5.21Q5.46 5.01 5.97 4.93L5.97 4.93L5.97 4.93Q6.48 4.84 6.97 4.84L6.97 4.84L6.97 4.84Q7.90 4.84 8.78 5.10L8.78 5.10L8.78 5.10Q9.66 5.35 10.54 5.74ZM24.02 9.21L24.02 9.21L24.02 9.21Q24.49 9.21 24.74 9.46L24.74 9.46L24.74 9.46Q25.00 9.72 25.00 10.16L25.00 10.16L25.00 10.16Q25.00 10.28 24.98 10.39L24.98 10.39L24.98 10.39Q24.96 10.51 24.93 10.60L24.93 10.60L24.93 10.60Q24.75 10.57 24.53 10.55L24.53 10.55L24.53 10.55Q24.30 10.53 24.00 10.53L24.00 10.53L24.00 10.53Q23.39 10.53 22.78 10.63L22.78 10.63L22.78 10.63Q22.16 10.74 21.60 10.81L21.60 10.81L21.60 10.81Q21.28 11.55 21.01 12.24L21.01 12.24L21.01 12.24Q20.75 12.94 20.56 13.51L20.56 13.51L20.56 13.51Q20.37 14.08 20.27 14.50L20.27 14.50L20.27 14.50Q20.16 14.92 20.15 15.13L20.15 15.13L20.15 15.13Q21.28 14.90 22.43 14.73L22.43 14.73L22.43 14.73Q23.59 14.56 24.86 14.48L24.86 14.48L24.86 14.48Q25.02 14.71 25.12 14.99L25.12 14.99L25.12 14.99Q25.23 15.27 25.23 15.60L25.23 15.60L25.23 15.60Q25.23 15.68 25.23 15.78L25.23 15.78L25.23 15.78Q25.23 15.88 25.20 15.97L25.20 15.97L25.20 15.97Q24.81 15.96 24.37 15.95L24.37 15.95L24.37 15.95Q23.94 15.95 23.24 15.95L23.24 15.95L23.24 15.95Q22.78 15.95 22.36 15.97L22.36 15.97L22.36 15.97Q21.95 15.99 21.53 16.03L21.53 16.03L21.53 16.03Q21.11 16.07 20.64 16.14L20.64 16.14L20.64 16.14Q20.17 16.21 19.59 16.31L19.59 16.31L19.59 16.31Q18.94 16.06 18.34 15.08L18.34 15.08L18.34 15.08Q18.58 14.57 19.00 13.54L19.00 13.54L19.00 13.54Q19.43 12.52 20.09 10.79L20.09 10.79L20.09 10.79Q19.46 10.60 19.26 10.09L19.26 10.09L19.26 10.09Q19.33 10.02 19.67 9.92L19.67 9.92L19.67 9.92Q20.01 9.81 20.50 9.70L20.50 9.70L20.50 9.70Q20.71 9.16 20.85 8.75L20.85 8.75L20.85 8.75Q21 8.34 21.11 7.99L21.11 7.99L21.11 7.99Q21.22 7.63 21.31 7.29L21.31 7.29L21.31 7.29Q21.41 6.94 21.49 6.54L21.49 6.54L21.49 6.54Q21 6.51 20.72 6.27L20.72 6.27L20.72 6.27Q20.44 6.02 20.44 5.63L20.44 5.63L20.44 5.63Q20.44 5.52 20.48 5.36L20.48 5.36L20.48 5.36Q20.51 5.21 20.55 5.10L20.55 5.10L20.55 5.10Q20.83 5.14 21.09 5.15L21.09 5.15L21.09 5.15Q21.35 5.17 21.77 5.17L21.77 5.17L21.77 5.17Q22.65 5.17 23.42 5.12L23.42 5.12L23.42 5.12Q24.19 5.07 24.81 5.01L24.81 5.01L24.81 5.01Q25.44 4.96 25.89 4.91L25.89 4.91L25.89 4.91Q26.33 4.86 26.57 4.86L26.57 4.86L26.57 4.86Q26.89 4.86 27.15 5.19L27.15 5.19L27.15 5.19Q27.40 5.53 27.52 6.15L27.52 6.15L27.52 6.15Q27.09 6.10 26.82 6.09L26.82 6.09L26.82 6.09Q26.54 6.08 26.33 6.08L26.33 6.08L26.33 6.08Q25.56 6.08 24.93 6.15L24.93 6.15L24.93 6.15Q24.29 6.23 23.70 6.31L23.70 6.31L23.70 6.31Q23.62 6.44 23.51 6.64L23.51 6.64L23.51 6.64Q23.41 6.83 23.24 7.18L23.24 7.18L23.24 7.18Q23.07 7.53 22.83 8.06L22.83 8.06L22.83 8.06Q22.58 8.60 22.23 9.39L22.23 9.39L22.23 9.39Q22.76 9.31 23.23 9.26L23.23 9.26L23.23 9.26Q23.70 9.21 24.02 9.21ZM39.55 9.21L39.55 9.21L39.55 9.21Q40.01 9.21 40.27 9.46L40.27 9.46L40.27 9.46Q40.53 9.72 40.53 10.16L40.53 10.16L40.53 10.16Q40.53 10.28 40.51 10.39L40.51 10.39L40.51 10.39Q40.49 10.51 40.46 10.60L40.46 10.60L40.46 10.60Q40.28 10.57 40.05 10.55L40.05 10.55L40.05 10.55Q39.83 10.53 39.52 10.53L39.52 10.53L39.52 10.53Q38.92 10.53 38.30 10.63L38.30 10.63L38.30 10.63Q37.69 10.74 37.13 10.81L37.13 10.81L37.13 10.81Q36.81 11.55 36.54 12.24L36.54 12.24L36.54 12.24Q36.27 12.94 36.09 13.51L36.09 13.51L36.09 13.51Q35.90 14.08 35.79 14.50L35.79 14.50L35.79 14.50Q35.69 14.92 35.67 15.13L35.67 15.13L35.67 15.13Q36.81 14.90 37.96 14.73L37.96 14.73L37.96 14.73Q39.12 14.56 40.39 14.48L40.39 14.48L40.39 14.48Q40.54 14.71 40.65 14.99L40.65 14.99L40.65 14.99Q40.75 15.27 40.75 15.60L40.75 15.60L40.75 15.60Q40.75 15.68 40.75 15.78L40.75 15.78L40.75 15.78Q40.75 15.88 40.73 15.97L40.73 15.97L40.73 15.97Q40.33 15.96 39.90 15.95L39.90 15.95L39.90 15.95Q39.47 15.95 38.77 15.95L38.77 15.95L38.77 15.95Q38.30 15.95 37.89 15.97L37.89 15.97L37.89 15.97Q37.48 15.99 37.06 16.03L37.06 16.03L37.06 16.03Q36.64 16.07 36.17 16.14L36.17 16.14L36.17 16.14Q35.70 16.21 35.11 16.31L35.11 16.31L35.11 16.31Q34.47 16.06 33.87 15.08L33.87 15.08L33.87 15.08Q34.10 14.57 34.53 13.54L34.53 13.54L34.53 13.54Q34.96 12.52 35.62 10.79L35.62 10.79L35.62 10.79Q34.99 10.60 34.79 10.09L34.79 10.09L34.79 10.09Q34.86 10.02 35.20 9.92L35.20 9.92L35.20 9.92Q35.53 9.81 36.02 9.70L36.02 9.70L36.02 9.70Q36.23 9.16 36.38 8.75L36.38 8.75L36.38 8.75Q36.53 8.34 36.64 7.99L36.64 7.99L36.64 7.99Q36.75 7.63 36.84 7.29L36.84 7.29L36.84 7.29Q36.93 6.94 37.02 6.54L37.02 6.54L37.02 6.54Q36.53 6.51 36.25 6.27L36.25 6.27L36.25 6.27Q35.97 6.02 35.97 5.63L35.97 5.63L35.97 5.63Q35.97 5.52 36.00 5.36L36.00 5.36L36.00 5.36Q36.04 5.21 36.08 5.10L36.08 5.10L36.08 5.10Q36.36 5.14 36.62 5.15L36.62 5.15L36.62 5.15Q36.88 5.17 37.30 5.17L37.30 5.17L37.30 5.17Q38.18 5.17 38.95 5.12L38.95 5.12L38.95 5.12Q39.72 5.07 40.34 5.01L40.34 5.01L40.34 5.01Q40.96 4.96 41.41 4.91L41.41 4.91L41.41 4.91Q41.86 4.86 42.10 4.86L42.10 4.86L42.10 4.86Q42.42 4.86 42.67 5.19L42.67 5.19L42.67 5.19Q42.92 5.53 43.05 6.15L43.05 6.15L43.05 6.15Q42.62 6.10 42.34 6.09L42.34 6.09L42.34 6.09Q42.07 6.08 41.86 6.08L41.86 6.08L41.86 6.08Q41.09 6.08 40.45 6.15L40.45 6.15L40.45 6.15Q39.82 6.23 39.23 6.31L39.23 6.31L39.23 6.31Q39.14 6.44 39.04 6.64L39.04 6.64L39.04 6.64Q38.93 6.83 38.77 7.18L38.77 7.18L38.77 7.18Q38.60 7.53 38.35 8.06L38.35 8.06L38.35 8.06Q38.11 8.60 37.76 9.39L37.76 9.39L37.76 9.39Q38.29 9.31 38.76 9.26L38.76 9.26L38.76 9.26Q39.23 9.21 39.55 9.21ZM62.40 6.69L62.40 6.69L62.40 6.69Q61.84 6.69 61.54 6.38L61.54 6.38L61.54 6.38Q61.24 6.06 61.24 5.61L61.24 5.61L61.24 5.61Q61.24 5.50 61.27 5.35L61.27 5.35L61.27 5.35Q61.31 5.19 61.36 5.08L61.36 5.08L61.36 5.08Q61.54 5.17 61.90 5.20L61.90 5.20L61.90 5.20Q62.26 5.24 62.73 5.24L62.73 5.24L62.73 5.24Q63.45 5.24 64.35 5.17L64.35 5.17L64.35 5.17Q65.25 5.11 66.08 5.04L66.08 5.04L66.08 5.04Q66.91 4.97 67.54 4.91L67.54 4.91L67.54 4.91Q68.17 4.84 68.35 4.84L68.35 4.84L68.35 4.84Q68.87 4.84 69.10 5.23L69.10 5.23L69.10 5.23Q69.33 5.61 69.44 6.26L69.44 6.26L69.44 6.26Q69.08 6.23 68.72 6.21L68.72 6.21L68.72 6.21Q68.36 6.19 68.11 6.19L68.11 6.19L68.11 6.19Q67.66 6.19 67.21 6.22L67.21 6.22L67.21 6.22Q66.75 6.24 66.29 6.30L66.29 6.30L66.29 6.30Q66.09 6.71 65.86 7.26L65.86 7.26L65.86 7.26Q65.62 7.81 65.39 8.41L65.39 8.41L65.39 8.41Q65.16 9.02 64.95 9.61L64.95 9.61L64.95 9.61Q64.74 10.21 64.58 10.68L64.58 10.68L64.58 10.68Q64.27 11.61 64.04 12.39L64.04 12.39L64.04 12.39Q63.81 13.17 63.64 13.85L63.64 13.85L63.64 13.85Q63.46 14.53 63.34 15.15L63.34 15.15L63.34 15.15Q63.21 15.76 63.11 16.35L63.11 16.35L63.11 16.35Q62.17 16.21 61.54 15.18L61.54 15.18L61.54 15.18Q61.66 14.74 61.82 14.23L61.82 14.23L61.82 14.23Q61.98 13.72 62.19 13.07L62.19 13.07L62.19 13.07Q62.41 12.42 62.71 11.59L62.71 11.59L62.71 11.59Q63 10.77 63.38 9.72L63.38 9.72L63.38 9.72Q63.52 9.32 63.67 8.90L63.67 8.90L63.67 8.90Q63.83 8.47 63.97 8.05L63.97 8.05L63.97 8.05Q64.12 7.63 64.24 7.24L64.24 7.24L64.24 7.24Q64.36 6.85 64.44 6.52L64.44 6.52L64.44 6.52Q63.85 6.59 63.33 6.64L63.33 6.64L63.33 6.64Q62.80 6.69 62.40 6.69ZM80.32 14.36L80.32 14.36L80.32 14.36Q80.32 13.78 80.51 12.85L80.51 12.85L80.51 12.85Q80.71 11.93 81.03 10.88L81.03 10.88L81.03 10.88Q80.11 10.95 79.18 11.06L79.18 11.06L79.18 11.06Q78.25 11.17 77.56 11.19L77.56 11.19L77.56 11.19Q76.93 12.66 76.56 13.89L76.56 13.89L76.56 13.89Q76.19 15.13 75.98 16.31L75.98 16.31L75.98 16.31Q75.45 16.18 75.10 15.87L75.10 15.87L75.10 15.87Q74.75 15.55 74.45 15.08L74.45 15.08L74.45 15.08Q74.56 14.85 74.71 14.50L74.71 14.50L74.71 14.50Q74.86 14.15 75.06 13.66L75.06 13.66L75.06 13.66Q75.26 13.16 75.52 12.50L75.52 12.50L75.52 12.50Q75.78 11.83 76.12 10.95L76.12 10.95L76.12 10.95Q75.66 10.75 75.50 10.40L75.50 10.40L75.50 10.40Q75.57 10.35 75.82 10.28L75.82 10.28L75.82 10.28Q76.06 10.22 76.43 10.15L76.43 10.15L76.61 9.70L76.61 9.70Q76.90 8.95 77.09 8.43L77.09 8.43L77.09 8.43Q77.28 7.91 77.41 7.41L77.41 7.41L77.41 7.41Q77.55 6.92 77.66 6.31L77.66 6.31L77.66 6.31Q77.78 5.71 77.95 4.79L77.95 4.79L77.95 4.79Q78.54 4.90 79.02 5.31L79.02 5.31L79.02 5.31Q79.51 5.71 79.86 6.29L79.86 6.29L79.86 6.29Q79.73 6.45 79.55 6.79L79.55 6.79L79.55 6.79Q79.37 7.13 79.15 7.59L79.15 7.59L79.15 7.59Q78.93 8.06 78.68 8.64L78.68 8.64L78.68 8.64Q78.43 9.23 78.13 9.87L78.13 9.87L78.13 9.87Q79.00 9.76 79.89 9.66L79.89 9.66L79.89 9.66Q80.78 9.56 81.47 9.52L81.47 9.52L81.47 9.52Q81.72 8.79 81.99 8.10L81.99 8.10L81.99 8.10Q82.26 7.41 82.53 6.83L82.53 6.83L82.53 6.83Q82.80 6.26 83.04 5.82L83.04 5.82L83.04 5.82Q83.29 5.39 83.48 5.18L83.48 5.18L83.48 5.18Q83.62 5.19 83.85 5.29L83.85 5.29L83.85 5.29Q84.08 5.38 84.32 5.50L84.32 5.50L84.32 5.50Q84.56 5.63 84.76 5.78L84.76 5.78L84.76 5.78Q84.95 5.92 85.02 6.05L85.02 6.05L85.02 6.05Q84.77 6.29 84.52 6.66L84.52 6.66L84.52 6.66Q84.27 7.04 84.02 7.53L84.02 7.53L84.02 7.53Q83.78 8.02 83.54 8.60L83.54 8.60L83.54 8.60Q83.30 9.17 83.09 9.79L83.09 9.79L83.09 9.79Q83.37 10.04 83.37 10.42L83.37 10.42L83.37 10.42Q83.37 10.68 83.26 10.91L83.26 10.91L83.26 10.91Q83.13 10.88 83.01 10.87L83.01 10.87L83.01 10.87Q82.88 10.86 82.74 10.85L82.74 10.85L82.74 10.85Q82.50 11.61 82.31 12.35L82.31 12.35L82.31 12.35Q82.11 13.09 81.98 13.76L81.98 13.76L81.98 13.76Q81.84 14.43 81.77 14.99L81.77 14.99L81.77 14.99Q81.69 15.55 81.69 15.93L81.69 15.93L81.69 15.93Q81.69 16.07 81.70 16.16L81.70 16.16L81.70 16.16Q81.70 16.24 81.72 16.30L81.72 16.30L81.72 16.30Q81.41 16.28 81.27 16.19L81.27 16.19L81.27 16.19Q81.13 16.10 81.06 16.00L81.06 16.00L81.06 16.00Q80.99 15.89 80.93 15.79L80.93 15.79L80.93 15.79Q80.88 15.68 80.75 15.62L80.75 15.62L80.75 15.62Q80.65 15.58 80.57 15.43L80.57 15.43L80.57 15.43Q80.49 15.27 80.43 15.08L80.43 15.08L80.43 15.08Q80.37 14.88 80.35 14.69L80.35 14.69L80.35 14.69Q80.32 14.49 80.32 14.36ZM97.09 9.21L97.09 9.21L97.09 9.21Q97.55 9.21 97.81 9.46L97.81 9.46L97.81 9.46Q98.07 9.72 98.07 10.16L98.07 10.16L98.07 10.16Q98.07 10.28 98.05 10.39L98.05 10.39L98.05 10.39Q98.03 10.51 98.00 10.60L98.00 10.60L98.00 10.60Q97.82 10.57 97.59 10.55L97.59 10.55L97.59 10.55Q97.37 10.53 97.06 10.53L97.06 10.53L97.06 10.53Q96.46 10.53 95.84 10.63L95.84 10.63L95.84 10.63Q95.23 10.74 94.67 10.81L94.67 10.81L94.67 10.81Q94.35 11.55 94.08 12.24L94.08 12.24L94.08 12.24Q93.81 12.94 93.62 13.51L93.62 13.51L93.62 13.51Q93.44 14.08 93.33 14.50L93.33 14.50L93.33 14.50Q93.23 14.92 93.21 15.13L93.21 15.13L93.21 15.13Q94.35 14.90 95.50 14.73L95.50 14.73L95.50 14.73Q96.66 14.56 97.93 14.48L97.93 14.48L97.93 14.48Q98.08 14.71 98.19 14.99L98.19 14.99L98.19 14.99Q98.29 15.27 98.29 15.60L98.29 15.60L98.29 15.60Q98.29 15.68 98.29 15.78L98.29 15.78L98.29 15.78Q98.29 15.88 98.27 15.97L98.27 15.97L98.27 15.97Q97.87 15.96 97.44 15.95L97.44 15.95L97.44 15.95Q97.01 15.95 96.31 15.95L96.31 15.95L96.31 15.95Q95.84 15.95 95.43 15.97L95.43 15.97L95.43 15.97Q95.02 15.99 94.60 16.03L94.60 16.03L94.60 16.03Q94.18 16.07 93.71 16.14L93.71 16.14L93.71 16.14Q93.24 16.21 92.65 16.31L92.65 16.31L92.65 16.31Q92.01 16.06 91.41 15.08L91.41 15.08L91.41 15.08Q91.64 14.57 92.07 13.54L92.07 13.54L92.07 13.54Q92.50 12.52 93.16 10.79L93.16 10.79L93.16 10.79Q92.53 10.60 92.33 10.09L92.33 10.09L92.33 10.09Q92.40 10.02 92.74 9.92L92.74 9.92L92.74 9.92Q93.07 9.81 93.56 9.70L93.56 9.70L93.56 9.70Q93.77 9.16 93.92 8.75L93.92 8.75L93.92 8.75Q94.07 8.34 94.18 7.99L94.18 7.99L94.18 7.99Q94.29 7.63 94.38 7.29L94.38 7.29L94.38 7.29Q94.47 6.94 94.56 6.54L94.56 6.54L94.56 6.54Q94.07 6.51 93.79 6.27L93.79 6.27L93.79 6.27Q93.51 6.02 93.51 5.63L93.51 5.63L93.51 5.63Q93.51 5.52 93.54 5.36L93.54 5.36L93.54 5.36Q93.58 5.21 93.62 5.10L93.62 5.10L93.62 5.10Q93.90 5.14 94.16 5.15L94.16 5.15L94.16 5.15Q94.42 5.17 94.84 5.17L94.84 5.17L94.84 5.17Q95.72 5.17 96.49 5.12L96.49 5.12L96.49 5.12Q97.26 5.07 97.88 5.01L97.88 5.01L97.88 5.01Q98.50 4.96 98.95 4.91L98.95 4.91L98.95 4.91Q99.40 4.86 99.64 4.86L99.64 4.86L99.64 4.86Q99.96 4.86 100.21 5.19L100.21 5.19L100.21 5.19Q100.46 5.53 100.59 6.15L100.59 6.15L100.59 6.15Q100.16 6.10 99.88 6.09L99.88 6.09L99.88 6.09Q99.61 6.08 99.40 6.08L99.40 6.08L99.40 6.08Q98.63 6.08 97.99 6.15L97.99 6.15L97.99 6.15Q97.36 6.23 96.77 6.31L96.77 6.31L96.77 6.31Q96.68 6.44 96.58 6.64L96.58 6.64L96.58 6.64Q96.47 6.83 96.31 7.18L96.31 7.18L96.31 7.18Q96.14 7.53 95.89 8.06L95.89 8.06L95.89 8.06Q95.65 8.60 95.30 9.39L95.30 9.39L95.30 9.39Q95.83 9.31 96.30 9.26L96.30 9.26L96.30 9.26Q96.77 9.21 97.09 9.21ZM118.96 15.61L118.96 15.61L118.96 15.61Q118.89 15.04 118.85 14.36L118.85 14.36L118.85 14.36Q118.82 13.68 118.82 13.09L118.82 13.09L118.82 13.09Q118.82 12.15 118.88 11.29L118.88 11.29L118.88 11.29Q118.94 10.43 119.03 9.48L119.03 9.48L119.03 9.48Q119.13 8.54 119.24 7.43L119.24 7.43L119.24 7.43Q119.35 6.31 119.43 4.86L119.43 4.86L119.43 4.86Q119.62 4.86 119.96 4.96L119.96 4.96L119.96 4.96Q120.30 5.07 120.65 5.21L120.65 5.21L120.65 5.21Q121.00 5.35 121.27 5.49L121.27 5.49L121.27 5.49Q121.53 5.64 121.58 5.74L121.58 5.74L121.58 5.74Q121.34 6.29 121.15 7.18L121.15 7.18L121.15 7.18Q120.96 8.06 120.83 9.11L120.83 9.11L120.83 9.11Q120.71 10.16 120.64 11.27L120.64 11.27L120.64 11.27Q120.57 12.38 120.57 13.34L120.57 13.34L120.57 13.34Q120.57 13.79 120.58 14.22L120.58 14.22L120.58 14.22Q120.60 14.66 120.62 15.02L120.62 15.02L120.62 15.02Q120.92 14.59 121.30 13.78L121.30 13.78L121.30 13.78Q121.69 12.98 122.10 11.98L122.10 11.98L122.10 11.98Q122.51 10.99 122.93 9.91L122.93 9.91L122.93 9.91Q123.34 8.82 123.69 7.83L123.69 7.83L123.69 7.83Q124.04 6.85 124.28 6.05L124.28 6.05L124.28 6.05Q124.53 5.26 124.63 4.86L124.63 4.86L124.63 4.86Q124.81 4.86 125.17 4.96L125.17 4.96L125.17 4.96Q125.52 5.07 125.87 5.21L125.87 5.21L125.87 5.21Q126.21 5.35 126.48 5.49L126.48 5.49L126.48 5.49Q126.74 5.64 126.77 5.74L126.77 5.74L126.77 5.74Q126.53 6.29 126.34 7.18L126.34 7.18L126.34 7.18Q126.15 8.06 126.03 9.11L126.03 9.11L126.03 9.11Q125.90 10.16 125.83 11.27L125.83 11.27L125.83 11.27Q125.76 12.38 125.76 13.34L125.76 13.34L125.76 13.34Q125.76 13.75 125.77 14.15L125.77 14.15L125.77 14.15Q125.78 14.55 125.80 14.87L125.80 14.87L125.80 14.87Q126.25 13.71 126.73 12.56L126.73 12.56L126.73 12.56Q127.22 11.42 127.69 10.38L127.69 10.38L127.69 10.38Q128.17 9.34 128.62 8.43L128.62 8.43L128.62 8.43Q129.07 7.53 129.44 6.82L129.44 6.82L129.44 6.82Q129.82 6.12 130.10 5.66L130.10 5.66L130.10 5.66Q130.38 5.19 130.54 5.04L130.54 5.04L130.54 5.04Q130.86 5.08 131.20 5.27L131.20 5.27L131.20 5.27Q131.54 5.46 131.81 5.75L131.81 5.75L131.81 5.75Q131.40 6.08 130.89 6.81L130.89 6.81L130.89 6.81Q130.37 7.55 129.82 8.51L129.82 8.51L129.82 8.51Q129.28 9.48 128.72 10.57L128.72 10.57L128.72 10.57Q128.17 11.66 127.69 12.70L127.69 12.70L127.69 12.70Q127.22 13.73 126.85 14.63L126.85 14.63L126.85 14.63Q126.48 15.53 126.28 16.07L126.28 16.07L126.28 16.07Q125.92 16.24 125.57 16.24L125.57 16.24L125.57 16.24Q125.12 16.18 124.72 16.02L124.72 16.02L124.72 16.02Q124.32 15.85 124.15 15.61L124.15 15.61L124.15 15.61Q124.11 15.39 124.08 15.09L124.08 15.09L124.08 15.09Q124.05 14.78 124.04 14.49L124.04 14.49L124.04 14.49Q124.03 14.20 124.02 13.92L124.02 13.92L124.02 13.92Q124.01 13.65 124.01 13.45L124.01 13.45L124.01 13.45Q124.01 12.21 124.11 10.91L124.11 10.91L124.11 10.91Q124.21 9.62 124.35 8.13L124.35 8.13L124.35 8.13Q124.03 9.09 123.63 10.18L123.63 10.18L123.63 10.18Q123.24 11.27 122.81 12.34L122.81 12.34L122.81 12.34Q122.39 13.41 121.95 14.38L121.95 14.38L121.95 14.38Q121.51 15.36 121.09 16.07L121.09 16.07L121.09 16.07Q120.72 16.24 120.37 16.24L120.37 16.24L120.37 16.24Q119.92 16.18 119.52 16.02L119.52 16.02L119.52 16.02Q119.13 15.85 118.96 15.61ZM143.96 4.98L143.96 4.98L143.96 4.98Q144.23 5.10 144.51 5.27L144.51 5.27L144.51 5.27Q144.79 5.45 145.03 5.63L145.03 5.63L145.03 5.63Q145.26 5.81 145.42 5.98L145.42 5.98L145.42 5.98Q145.59 6.16 145.60 6.27L145.60 6.27L145.60 6.27Q145.36 6.22 145.12 6.20L145.12 6.20L145.12 6.20Q144.89 6.17 144.69 6.17L144.69 6.17L144.69 6.17Q144.06 6.17 143.44 6.48L143.44 6.48L143.44 6.48Q142.81 6.79 142.25 7.32L142.25 7.32L142.25 7.32Q141.69 7.85 141.22 8.57L141.22 8.57L141.22 8.57Q140.74 9.28 140.40 10.09L140.40 10.09L140.40 10.09Q140.06 10.91 139.86 11.77L139.86 11.77L139.86 11.77Q139.66 12.64 139.66 13.48L139.66 13.48L139.66 13.48Q139.66 14.57 140.03 15.11L140.03 15.11L140.03 15.11Q140.39 15.64 141.09 15.64L141.09 15.64L141.09 15.64Q141.43 15.64 141.82 15.51L141.82 15.51L141.82 15.51Q142.21 15.37 142.62 15.13L142.62 15.13L142.62 15.13Q143.02 14.90 143.42 14.56L143.42 14.56L143.42 14.56Q143.81 14.22 144.14 13.82L144.14 13.82L144.14 13.82Q144.63 13.23 145.03 12.48L145.03 12.48L145.03 12.48Q145.42 11.73 145.69 10.89L145.69 10.89L145.69 10.89Q145.96 10.05 146.11 9.16L146.11 9.16L146.11 9.16Q146.26 8.27 146.26 7.42L146.26 7.42L146.26 7.42Q146.26 7.08 146.24 6.85L146.24 6.85L146.24 6.85Q146.23 6.62 146.21 6.46L146.21 6.46L146.21 6.46Q146.19 6.30 146.17 6.20L146.17 6.20L146.17 6.20Q146.16 6.10 146.15 6.03L146.15 6.03L146.15 6.03Q146.31 6.12 146.52 6.24L146.52 6.24L146.52 6.24Q146.72 6.36 146.89 6.59L146.89 6.59L146.89 6.59Q147.07 6.82 147.19 7.20L147.19 7.20L147.19 7.20Q147.31 7.57 147.31 8.18L147.31 8.18L147.31 8.18Q147.31 9.16 147.08 10.10L147.08 10.10L147.08 10.10Q146.85 11.05 146.43 11.90L146.43 11.90L146.43 11.90Q146.02 12.75 145.46 13.50L145.46 13.50L145.46 13.50Q144.90 14.24 144.26 14.80L144.26 14.80L144.26 14.80Q143.42 15.54 142.46 15.95L142.46 15.95L142.46 15.95Q141.51 16.35 140.63 16.35L140.63 16.35L140.63 16.35Q139.34 16.35 138.66 15.53L138.66 15.53L138.66 15.53Q137.98 14.71 137.98 13.12L137.98 13.12L137.98 13.12Q137.98 12.26 138.17 11.31L138.17 11.31L138.17 11.31Q138.36 10.36 138.70 9.44L138.70 9.44L138.70 9.44Q139.05 8.51 139.52 7.68L139.52 7.68L139.52 7.68Q140 6.85 140.57 6.21L140.57 6.21L140.57 6.21Q141.13 5.57 141.78 5.19L141.78 5.19L141.78 5.19Q142.44 4.82 143.12 4.82L143.12 4.82L143.12 4.82Q143.35 4.82 143.54 4.85L143.54 4.85L143.54 4.85Q143.74 4.89 143.96 4.98ZM164.15 7.46L164.15 7.46L164.15 7.46Q164.15 8.13 163.85 8.73L163.85 8.73L163.85 8.73Q163.55 9.32 163.02 9.79L163.02 9.79L163.02 9.79Q162.48 10.26 161.77 10.58L161.77 10.58L161.77 10.58Q161.06 10.91 160.22 11.02L160.22 11.02L160.22 11.02Q160.43 11.65 160.73 12.31L160.73 12.31L160.73 12.31Q161.03 12.98 161.38 13.59L161.38 13.59L161.38 13.59Q161.73 14.21 162.11 14.73L162.11 14.73L162.11 14.73Q162.48 15.25 162.85 15.58L162.85 15.58L162.85 15.58Q162.78 15.72 162.65 15.86L162.65 15.86L162.65 15.86Q162.51 16.00 162.34 16.12L162.34 16.12L162.34 16.12Q162.16 16.24 161.97 16.32L161.97 16.32L161.97 16.32Q161.78 16.39 161.62 16.39L161.62 16.39L161.62 16.39Q161.31 16.39 161.03 16.10L161.03 16.10L161.03 16.10Q160.75 15.81 160.46 15.17L160.46 15.17L160.46 15.17Q160.17 14.53 159.86 13.52L159.86 13.52L159.86 13.52Q159.54 12.50 159.17 11.07L159.17 11.07L159.17 11.07Q159.01 11.07 158.86 11.07L158.86 11.07L158.86 11.07Q158.70 11.07 158.62 11.05L158.62 11.05L158.62 11.05Q158.52 10.99 158.41 10.85L158.41 10.85L158.41 10.85Q158.03 11.66 157.74 12.38L157.74 12.38L157.74 12.38Q157.44 13.09 157.21 13.76L157.21 13.76L157.21 13.76Q156.98 14.42 156.81 15.04L156.81 15.04L156.81 15.04Q156.63 15.67 156.51 16.31L156.51 16.31L156.51 16.31Q156.03 16.20 155.68 15.90L155.68 15.90L155.68 15.90Q155.33 15.61 155.02 15.08L155.02 15.08L155.02 15.08Q155.08 14.95 155.14 14.83L155.14 14.83L155.14 14.83Q155.20 14.71 155.30 14.50L155.30 14.50L155.30 14.50Q155.40 14.28 155.55 13.94L155.55 13.94L155.55 13.94Q155.69 13.61 155.94 13.05L155.94 13.05L155.94 13.05Q156.18 12.49 156.53 11.68L156.53 11.68L156.53 11.68Q156.87 10.86 157.36 9.70L157.36 9.70L157.36 9.70Q157.58 9.18 157.75 8.79L157.75 8.79L157.75 8.79Q157.91 8.40 158.03 8.04L158.03 8.04L158.03 8.04Q158.16 7.69 158.26 7.33L158.26 7.33L158.26 7.33Q158.37 6.97 158.48 6.51L158.48 6.51L158.48 6.51Q157.84 6.73 157.28 7.01L157.28 7.01L157.28 7.01Q156.73 7.28 156.37 7.59L156.37 7.59L156.37 7.59Q156.24 7.50 156.11 7.34L156.11 7.34L156.11 7.34Q155.97 7.17 155.86 6.96L155.86 6.96L155.86 6.96Q155.75 6.76 155.67 6.55L155.67 6.55L155.67 6.55Q155.58 6.34 155.57 6.17L155.57 6.17L155.57 6.17Q155.99 5.89 156.60 5.66L156.60 5.66L156.60 5.66Q157.21 5.42 157.89 5.24L157.89 5.24L157.89 5.24Q158.58 5.07 159.29 4.97L159.29 4.97L159.29 4.97Q160.01 4.87 160.62 4.87L160.62 4.87L160.62 4.87Q162.30 4.87 163.23 5.56L163.23 5.56L163.23 5.56Q164.15 6.26 164.15 7.46ZM160.57 6.02L160.73 6.29L160.73 6.29Q160.64 6.41 160.43 6.79L160.43 6.79L160.43 6.79Q160.22 7.17 159.94 7.69L159.94 7.69L159.94 7.69Q159.67 8.22 159.37 8.83L159.37 8.83L159.37 8.83Q159.07 9.45 158.79 10.05L158.79 10.05L158.79 10.05Q159.84 10.05 160.72 9.86L160.72 9.86L160.72 9.86Q161.60 9.66 162.25 9.30L162.25 9.30L162.25 9.30Q162.89 8.95 163.25 8.46L163.25 8.46L163.25 8.46Q163.60 7.98 163.60 7.39L163.60 7.39L163.60 7.39Q163.60 6.69 163.10 6.32L163.10 6.32L163.10 6.32Q162.60 5.95 161.55 5.95L161.55 5.95L161.55 5.95Q161.31 5.95 161.07 5.97L161.07 5.97L161.07 5.97Q160.83 5.99 160.57 6.02L160.57 6.02ZM176.51 14.38L176.51 14.38L176.51 14.38Q176.86 14.98 176.86 15.54L176.86 15.54L176.86 15.54Q176.86 15.67 176.84 15.77L176.84 15.77L176.84 15.77Q176.82 15.88 176.79 15.99L176.79 15.99L176.79 15.99Q176.55 15.96 176.30 15.95L176.30 15.95L176.30 15.95Q176.04 15.93 175.76 15.93L175.76 15.93L175.76 15.93Q175.42 15.93 175.08 15.95L175.08 15.95L175.08 15.95Q174.73 15.97 174.31 16.02L174.31 16.02L174.31 16.02Q173.89 16.06 173.38 16.13L173.38 16.13L173.38 16.13Q172.86 16.20 172.17 16.31L172.17 16.31L172.17 16.31Q171.85 16.20 171.53 15.87L171.53 15.87L171.53 15.87Q171.21 15.54 170.93 15.08L170.93 15.08L170.93 15.08Q171.07 14.77 171.28 14.31L171.28 14.31L171.28 14.31Q171.49 13.86 171.77 13.21L171.77 13.21L171.77 13.21Q172.05 12.56 172.39 11.68L172.39 11.68L172.39 11.68Q172.73 10.81 173.12 9.66L173.12 9.66L173.12 9.66Q173.38 8.90 173.56 8.33L173.56 8.33L173.56 8.33Q173.74 7.76 173.89 7.22L173.89 7.22L173.89 7.22Q174.03 6.68 174.17 6.09L174.17 6.09L174.17 6.09Q174.31 5.50 174.48 4.73L174.48 4.73L174.48 4.73Q175.04 4.84 175.46 5.14L175.46 5.14L175.46 5.14Q175.87 5.45 176.25 6.01L176.25 6.01L176.25 6.01Q176.13 6.19 175.95 6.59L175.95 6.59L175.95 6.59Q175.77 7 175.53 7.58L175.53 7.58L175.53 7.58Q175.28 8.16 174.99 8.90L174.99 8.90L174.99 8.90Q174.69 9.63 174.37 10.47L174.37 10.47L174.37 10.47Q174.06 11.30 173.77 12.03L173.77 12.03L173.77 12.03Q173.47 12.75 173.24 13.34L173.24 13.34L173.24 13.34Q173.01 13.93 172.87 14.35L172.87 14.35L172.87 14.35Q172.73 14.77 172.73 14.98L172.73 14.98L172.73 14.98Q172.96 14.97 173.14 14.95L173.14 14.95L173.14 14.95Q173.32 14.94 173.52 14.90L173.52 14.90L173.52 14.90Q173.71 14.87 173.94 14.82L173.94 14.82L173.94 14.82Q174.17 14.77 174.50 14.69L174.50 14.69L174.50 14.69Q174.78 14.62 175.01 14.57L175.01 14.57L175.01 14.57Q175.25 14.52 175.48 14.48L175.48 14.48L175.48 14.48Q175.71 14.45 175.96 14.43L175.96 14.43L175.96 14.43Q176.20 14.41 176.51 14.38ZM185.84 14.45L185.84 14.45L185.84 14.45Q186.05 13.99 186.34 13.26L186.34 13.26L186.34 13.26Q186.63 12.53 186.96 11.68L186.96 11.68L186.96 11.68Q187.28 10.84 187.61 9.95L187.61 9.95L187.61 9.95Q187.95 9.06 188.24 8.26L188.24 8.26L188.24 8.26Q188.54 7.46 188.75 6.83L188.75 6.83L188.75 6.83Q188.97 6.20 189.07 5.87L189.07 5.87L189.07 5.87Q188.19 6.23 187.56 6.97L187.56 6.97L187.56 6.97Q186.93 7.71 186.61 8.83L186.61 8.83L186.61 8.83Q186.28 8.72 186.02 8.43L186.02 8.43L186.02 8.43Q185.75 8.15 185.67 7.71L185.67 7.71L185.67 7.71Q185.81 7.07 186.19 6.54L186.19 6.54L186.19 6.54Q186.58 6.01 187.17 5.63L187.17 5.63L187.17 5.63Q187.75 5.25 188.52 5.05L188.52 5.05L188.52 5.05Q189.29 4.84 190.18 4.84L190.18 4.84L190.18 4.84Q191.30 4.84 192.23 5.17L192.23 5.17L192.23 5.17Q193.17 5.50 193.84 6.09L193.84 6.09L193.84 6.09Q194.52 6.68 194.89 7.50L194.89 7.50L194.89 7.50Q195.27 8.33 195.27 9.34L195.27 9.34L195.27 9.34Q195.27 10.71 194.77 11.96L194.77 11.96L194.77 11.96Q194.26 13.20 193.40 14.15L193.40 14.15L193.40 14.15Q192.54 15.11 191.41 15.67L191.41 15.67L191.41 15.67Q190.27 16.24 189.03 16.24L189.03 16.24L189.03 16.24Q187.88 16.24 187.06 15.79L187.06 15.79L187.06 15.79Q186.24 15.33 185.84 14.45ZM190.78 5.54L190.78 5.54L190.78 5.54Q190.08 5.54 189.45 5.74L189.45 5.74L189.45 5.74Q190.06 5.96 190.47 6.21L190.47 6.21L190.47 6.21Q190.88 6.45 191.03 6.59L191.03 6.59L191.03 6.59Q190.92 6.75 190.70 7.14L190.70 7.14L190.70 7.14Q190.48 7.53 190.20 8.09L190.20 8.09L190.20 8.09Q189.91 8.65 189.59 9.32L189.59 9.32L189.59 9.32Q189.27 9.98 188.96 10.68L188.96 10.68L188.96 10.68Q188.16 12.46 187.80 13.48L187.80 13.48L187.80 13.48Q187.45 14.50 187.45 14.90L187.45 14.90L187.45 14.90Q187.64 14.97 187.92 14.99L187.92 14.99L187.92 14.99Q188.20 15.02 188.52 15.02L188.52 15.02L188.52 15.02Q189.66 15.02 190.67 14.50L190.67 14.50L190.67 14.50Q191.69 13.97 192.45 13.09L192.45 13.09L192.45 13.09Q193.21 12.21 193.66 11.04L193.66 11.04L193.66 11.04Q194.10 9.87 194.10 8.58L194.10 8.58L194.10 8.58Q194.10 7.14 193.20 6.34L193.20 6.34L193.20 6.34Q192.30 5.54 190.78 5.54ZM215.89 6.69L215.89 6.69L215.89 6.69Q215.33 6.69 215.03 6.38L215.03 6.38L215.03 6.38Q214.73 6.06 214.73 5.61L214.73 5.61L214.73 5.61Q214.73 5.50 214.77 5.35L214.77 5.35L214.77 5.35Q214.80 5.19 214.86 5.08L214.86 5.08L214.86 5.08Q215.04 5.17 215.40 5.20L215.40 5.20L215.40 5.20Q215.75 5.24 216.23 5.24L216.23 5.24L216.23 5.24Q216.94 5.24 217.85 5.17L217.85 5.17L217.85 5.17Q218.75 5.11 219.58 5.04L219.58 5.04L219.58 5.04Q220.40 4.97 221.03 4.91L221.03 4.91L221.03 4.91Q221.66 4.84 221.84 4.84L221.84 4.84L221.84 4.84Q222.36 4.84 222.59 5.23L222.59 5.23L222.59 5.23Q222.82 5.61 222.94 6.26L222.94 6.26L222.94 6.26Q222.57 6.23 222.22 6.21L222.22 6.21L222.22 6.21Q221.86 6.19 221.61 6.19L221.61 6.19L221.61 6.19Q221.16 6.19 220.70 6.22L220.70 6.22L220.70 6.22Q220.25 6.24 219.79 6.30L219.79 6.30L219.79 6.30Q219.59 6.71 219.35 7.26L219.35 7.26L219.35 7.26Q219.11 7.81 218.88 8.41L218.88 8.41L218.88 8.41Q218.65 9.02 218.44 9.61L218.44 9.61L218.44 9.61Q218.23 10.21 218.08 10.68L218.08 10.68L218.08 10.68Q217.77 11.61 217.54 12.39L217.54 12.39L217.54 12.39Q217.31 13.17 217.13 13.85L217.13 13.85L217.13 13.85Q216.96 14.53 216.83 15.15L216.83 15.15L216.83 15.15Q216.71 15.76 216.61 16.35L216.61 16.35L216.61 16.35Q215.67 16.21 215.04 15.18L215.04 15.18L215.04 15.18Q215.15 14.74 215.31 14.23L215.31 14.23L215.31 14.23Q215.47 13.72 215.69 13.07L215.69 13.07L215.69 13.07Q215.91 12.42 216.20 11.59L216.20 11.59L216.20 11.59Q216.50 10.77 216.87 9.72L216.87 9.72L216.87 9.72Q217.01 9.32 217.17 8.90L217.17 8.90L217.17 8.90Q217.32 8.47 217.47 8.05L217.47 8.05L217.47 8.05Q217.62 7.63 217.73 7.24L217.73 7.24L217.73 7.24Q217.85 6.85 217.94 6.52L217.94 6.52L217.94 6.52Q217.35 6.59 216.82 6.64L216.82 6.64L216.82 6.64Q216.30 6.69 215.89 6.69ZM233.81 14.36L233.81 14.36L233.81 14.36Q233.81 13.78 234.01 12.85L234.01 12.85L234.01 12.85Q234.21 11.93 234.53 10.88L234.53 10.88L234.53 10.88Q233.60 10.95 232.67 11.06L232.67 11.06L232.67 11.06Q231.74 11.17 231.06 11.19L231.06 11.19L231.06 11.19Q230.43 12.66 230.06 13.89L230.06 13.89L230.06 13.89Q229.68 15.13 229.47 16.31L229.47 16.31L229.47 16.31Q228.94 16.18 228.59 15.87L228.59 15.87L228.59 15.87Q228.24 15.55 227.95 15.08L227.95 15.08L227.95 15.08Q228.06 14.85 228.21 14.50L228.21 14.50L228.21 14.50Q228.35 14.15 228.56 13.66L228.56 13.66L228.56 13.66Q228.76 13.16 229.02 12.50L229.02 12.50L229.02 12.50Q229.28 11.83 229.61 10.95L229.61 10.95L229.61 10.95Q229.15 10.75 229.00 10.40L229.00 10.40L229.00 10.40Q229.07 10.35 229.31 10.28L229.31 10.28L229.31 10.28Q229.56 10.22 229.92 10.15L229.92 10.15L230.10 9.70L230.10 9.70Q230.40 8.95 230.59 8.43L230.59 8.43L230.59 8.43Q230.78 7.91 230.91 7.41L230.91 7.41L230.91 7.41Q231.04 6.92 231.16 6.31L231.16 6.31L231.16 6.31Q231.28 5.71 231.45 4.79L231.45 4.79L231.45 4.79Q232.04 4.90 232.52 5.31L232.52 5.31L232.52 5.31Q233.00 5.71 233.35 6.29L233.35 6.29L233.35 6.29Q233.23 6.45 233.04 6.79L233.04 6.79L233.04 6.79Q232.86 7.13 232.65 7.59L232.65 7.59L232.65 7.59Q232.43 8.06 232.18 8.64L232.18 8.64L232.18 8.64Q231.92 9.23 231.63 9.87L231.63 9.87L231.63 9.87Q232.50 9.76 233.39 9.66L233.39 9.66L233.39 9.66Q234.28 9.56 234.96 9.52L234.96 9.52L234.96 9.52Q235.21 8.79 235.49 8.10L235.49 8.10L235.49 8.10Q235.76 7.41 236.03 6.83L236.03 6.83L236.03 6.83Q236.29 6.26 236.54 5.82L236.54 5.82L236.54 5.82Q236.78 5.39 236.98 5.18L236.98 5.18L236.98 5.18Q237.12 5.19 237.35 5.29L237.35 5.29L237.35 5.29Q237.58 5.38 237.82 5.50L237.82 5.50L237.82 5.50Q238.06 5.63 238.25 5.78L238.25 5.78L238.25 5.78Q238.45 5.92 238.52 6.05L238.52 6.05L238.52 6.05Q238.27 6.29 238.01 6.66L238.01 6.66L238.01 6.66Q237.76 7.04 237.52 7.53L237.52 7.53L237.52 7.53Q237.27 8.02 237.03 8.60L237.03 8.60L237.03 8.60Q236.80 9.17 236.59 9.79L236.59 9.79L236.59 9.79Q236.87 10.04 236.87 10.42L236.87 10.42L236.87 10.42Q236.87 10.68 236.75 10.91L236.75 10.91L236.75 10.91Q236.63 10.88 236.50 10.87L236.50 10.87L236.50 10.87Q236.38 10.86 236.24 10.85L236.24 10.85L236.24 10.85Q236.00 11.61 235.80 12.35L235.80 12.35L235.80 12.35Q235.61 13.09 235.47 13.76L235.47 13.76L235.47 13.76Q235.34 14.43 235.26 14.99L235.26 14.99L235.26 14.99Q235.19 15.55 235.19 15.93L235.19 15.93L235.19 15.93Q235.19 16.07 235.19 16.16L235.19 16.16L235.19 16.16Q235.20 16.24 235.21 16.30L235.21 16.30L235.21 16.30Q234.91 16.28 234.77 16.19L234.77 16.19L234.77 16.19Q234.63 16.10 234.56 16.00L234.56 16.00L234.56 16.00Q234.49 15.89 234.43 15.79L234.43 15.79L234.43 15.79Q234.37 15.68 234.25 15.62L234.25 15.62L234.25 15.62Q234.15 15.58 234.07 15.43L234.07 15.43L234.07 15.43Q233.98 15.27 233.93 15.08L233.93 15.08L233.93 15.08Q233.87 14.88 233.84 14.69L233.84 14.69L233.84 14.69Q233.81 14.49 233.81 14.36ZM254.32 7.46L254.32 7.46L254.32 7.46Q254.32 8.13 254.02 8.73L254.02 8.73L254.02 8.73Q253.72 9.32 253.19 9.79L253.19 9.79L253.19 9.79Q252.66 10.26 251.94 10.58L251.94 10.58L251.94 10.58Q251.23 10.91 250.39 11.02L250.39 11.02L250.39 11.02Q250.60 11.65 250.90 12.31L250.90 12.31L250.90 12.31Q251.20 12.98 251.55 13.59L251.55 13.59L251.55 13.59Q251.90 14.21 252.28 14.73L252.28 14.73L252.28 14.73Q252.66 15.25 253.02 15.58L253.02 15.58L253.02 15.58Q252.95 15.72 252.82 15.86L252.82 15.86L252.82 15.86Q252.69 16.00 252.51 16.12L252.51 16.12L252.51 16.12Q252.34 16.24 252.15 16.32L252.15 16.32L252.15 16.32Q251.96 16.39 251.79 16.39L251.79 16.39L251.79 16.39Q251.48 16.39 251.20 16.10L251.20 16.10L251.20 16.10Q250.92 15.81 250.63 15.17L250.63 15.17L250.63 15.17Q250.35 14.53 250.03 13.52L250.03 13.52L250.03 13.52Q249.72 12.50 249.34 11.07L249.34 11.07L249.34 11.07Q249.19 11.07 249.03 11.07L249.03 11.07L249.03 11.07Q248.88 11.07 248.79 11.05L248.79 11.05L248.79 11.05Q248.70 10.99 248.58 10.85L248.58 10.85L248.58 10.85Q248.21 11.66 247.91 12.38L247.91 12.38L247.91 12.38Q247.62 13.09 247.39 13.76L247.39 13.76L247.39 13.76Q247.16 14.42 246.98 15.04L246.98 15.04L246.98 15.04Q246.81 15.67 246.68 16.31L246.68 16.31L246.68 16.31Q246.20 16.20 245.85 15.90L245.85 15.90L245.85 15.90Q245.50 15.61 245.20 15.08L245.20 15.08L245.20 15.08Q245.25 14.95 245.31 14.83L245.31 14.83L245.31 14.83Q245.38 14.71 245.48 14.50L245.48 14.50L245.48 14.50Q245.57 14.28 245.72 13.94L245.72 13.94L245.72 13.94Q245.87 13.61 246.11 13.05L246.11 13.05L246.11 13.05Q246.36 12.49 246.70 11.68L246.70 11.68L246.70 11.68Q247.04 10.86 247.53 9.70L247.53 9.70L247.53 9.70Q247.76 9.18 247.92 8.79L247.92 8.79L247.92 8.79Q248.08 8.40 248.21 8.04L248.21 8.04L248.21 8.04Q248.33 7.69 248.44 7.33L248.44 7.33L248.44 7.33Q248.54 6.97 248.65 6.51L248.65 6.51L248.65 6.51Q248.01 6.73 247.46 7.01L247.46 7.01L247.46 7.01Q246.90 7.28 246.54 7.59L246.54 7.59L246.54 7.59Q246.41 7.50 246.28 7.34L246.28 7.34L246.28 7.34Q246.15 7.17 246.04 6.96L246.04 6.96L246.04 6.96Q245.92 6.76 245.84 6.55L245.84 6.55L245.84 6.55Q245.76 6.34 245.74 6.17L245.74 6.17L245.74 6.17Q246.16 5.89 246.77 5.66L246.77 5.66L246.77 5.66Q247.38 5.42 248.07 5.24L248.07 5.24L248.07 5.24Q248.75 5.07 249.47 4.97L249.47 4.97L249.47 4.97Q250.18 4.87 250.80 4.87L250.80 4.87L250.80 4.87Q252.48 4.87 253.40 5.56L253.40 5.56L253.40 5.56Q254.32 6.26 254.32 7.46ZM250.74 6.02L250.91 6.29L250.91 6.29Q250.81 6.41 250.60 6.79L250.60 6.79L250.60 6.79Q250.39 7.17 250.12 7.69L250.12 7.69L250.12 7.69Q249.84 8.22 249.54 8.83L249.54 8.83L249.54 8.83Q249.24 9.45 248.96 10.05L248.96 10.05L248.96 10.05Q250.01 10.05 250.89 9.86L250.89 9.86L250.89 9.86Q251.78 9.66 252.42 9.30L252.42 9.30L252.42 9.30Q253.06 8.95 253.42 8.46L253.42 8.46L253.42 8.46Q253.78 7.98 253.78 7.39L253.78 7.39L253.78 7.39Q253.78 6.69 253.27 6.32L253.27 6.32L253.27 6.32Q252.77 5.95 251.72 5.95L251.72 5.95L251.72 5.95Q251.48 5.95 251.24 5.97L251.24 5.97L251.24 5.97Q251.01 5.99 250.74 6.02L250.74 6.02ZM267.82 4.98L267.82 4.98L267.82 4.98Q268.09 5.10 268.37 5.27L268.37 5.27L268.37 5.27Q268.65 5.45 268.88 5.63L268.88 5.63L268.88 5.63Q269.12 5.81 269.28 5.98L269.28 5.98L269.28 5.98Q269.44 6.16 269.46 6.27L269.46 6.27L269.46 6.27Q269.22 6.22 268.98 6.20L268.98 6.20L268.98 6.20Q268.74 6.17 268.55 6.17L268.55 6.17L268.55 6.17Q267.92 6.17 267.30 6.48L267.30 6.48L267.30 6.48Q266.67 6.79 266.11 7.32L266.11 7.32L266.11 7.32Q265.55 7.85 265.08 8.57L265.08 8.57L265.08 8.57Q264.60 9.28 264.26 10.09L264.26 10.09L264.26 10.09Q263.91 10.91 263.72 11.77L263.72 11.77L263.72 11.77Q263.52 12.64 263.52 13.48L263.52 13.48L263.52 13.48Q263.52 14.57 263.89 15.11L263.89 15.11L263.89 15.11Q264.25 15.64 264.95 15.64L264.95 15.64L264.95 15.64Q265.29 15.64 265.68 15.51L265.68 15.51L265.68 15.51Q266.07 15.37 266.48 15.13L266.48 15.13L266.48 15.13Q266.88 14.90 267.27 14.56L267.27 14.56L267.27 14.56Q267.67 14.22 268.00 13.82L268.00 13.82L268.00 13.82Q268.49 13.23 268.88 12.48L268.88 12.48L268.88 12.48Q269.28 11.73 269.55 10.89L269.55 10.89L269.55 10.89Q269.82 10.05 269.97 9.16L269.97 9.16L269.97 9.16Q270.12 8.27 270.12 7.42L270.12 7.42L270.12 7.42Q270.12 7.08 270.10 6.85L270.10 6.85L270.10 6.85Q270.09 6.62 270.07 6.46L270.07 6.46L270.07 6.46Q270.05 6.30 270.03 6.20L270.03 6.20L270.03 6.20Q270.02 6.10 270.00 6.03L270.00 6.03L270.00 6.03Q270.17 6.12 270.38 6.24L270.38 6.24L270.38 6.24Q270.58 6.36 270.75 6.59L270.75 6.59L270.75 6.59Q270.93 6.82 271.05 7.20L271.05 7.20L271.05 7.20Q271.17 7.57 271.17 8.18L271.17 8.18L271.17 8.18Q271.17 9.16 270.94 10.10L270.94 10.10L270.94 10.10Q270.70 11.05 270.29 11.90L270.29 11.90L270.29 11.90Q269.88 12.75 269.32 13.50L269.32 13.50L269.32 13.50Q268.76 14.24 268.11 14.80L268.11 14.80L268.11 14.80Q267.27 15.54 266.32 15.95L266.32 15.95L266.32 15.95Q265.37 16.35 264.49 16.35L264.49 16.35L264.49 16.35Q263.20 16.35 262.52 15.53L262.52 15.53L262.52 15.53Q261.84 14.71 261.84 13.12L261.84 13.12L261.84 13.12Q261.84 12.26 262.03 11.31L262.03 11.31L262.03 11.31Q262.22 10.36 262.56 9.44L262.56 9.44L262.56 9.44Q262.91 8.51 263.38 7.68L263.38 7.68L263.38 7.68Q263.86 6.85 264.43 6.21L264.43 6.21L264.43 6.21Q264.99 5.57 265.64 5.19L265.64 5.19L265.64 5.19Q266.29 4.82 266.98 4.82L266.98 4.82L266.98 4.82Q267.20 4.82 267.40 4.85L267.40 4.85L267.40 4.85Q267.60 4.89 267.82 4.98ZM283.86 5.75L283.86 5.75L283.86 5.75Q283.25 6.58 282.74 7.57L282.74 7.57L282.74 7.57Q282.24 8.57 281.88 9.61L281.88 9.61L281.88 9.61Q281.53 10.65 281.34 11.67L281.34 11.67L281.34 11.67Q281.15 12.68 281.15 13.57L281.15 13.57L281.15 13.57Q281.15 14.66 281.47 15.15L281.47 15.15L281.47 15.15Q281.79 15.64 282.58 15.64L282.58 15.64L282.58 15.64Q283.49 15.64 284.17 15.00L284.17 15.00L284.17 15.00Q284.86 14.36 285.46 13.24L285.46 13.24L285.46 13.24Q285.85 12.52 286.13 11.65L286.13 11.65L286.13 11.65Q286.41 10.78 286.59 9.86L286.59 9.86L286.59 9.86Q286.76 8.95 286.85 8.02L286.85 8.02L286.85 8.02Q286.93 7.08 286.93 6.23L286.93 6.23L286.93 6.23Q286.93 5.68 286.92 5.43L286.92 5.43L286.92 5.43Q286.90 5.18 286.87 5.03L286.87 5.03L286.87 5.03Q286.92 5.03 287.08 5.05L287.08 5.05L287.08 5.05Q287.25 5.08 287.47 5.12L287.47 5.12L287.47 5.12Q287.69 5.17 287.90 5.24L287.90 5.24L287.90 5.24Q288.12 5.31 288.27 5.39L288.27 5.39L288.27 5.39Q288.20 6.45 288.01 7.59L288.01 7.59L288.01 7.59Q287.83 8.72 287.52 9.83L287.52 9.83L287.52 9.83Q287.21 10.93 286.80 11.96L286.80 11.96L286.80 11.96Q286.40 12.98 285.89 13.79L285.89 13.79L285.89 13.79Q285.15 14.99 284.23 15.67L284.23 15.67L284.23 15.67Q283.30 16.35 282.04 16.35L282.04 16.35L282.04 16.35Q280.76 16.35 280.04 15.60L280.04 15.60L280.04 15.60Q279.33 14.85 279.33 13.33L279.33 13.33L279.33 13.33Q279.33 12.45 279.52 11.33L279.52 11.33L279.52 11.33Q279.72 10.22 280.05 9.07L280.05 9.07L280.05 9.07Q280.38 7.91 280.81 6.81L280.81 6.81L280.81 6.81Q281.25 5.71 281.72 4.84L281.72 4.84L281.72 4.84Q281.96 4.86 282.28 4.94L282.28 4.94L282.28 4.94Q282.60 5.03 282.91 5.16L282.91 5.16L282.91 5.16Q283.22 5.29 283.48 5.45L283.48 5.45L283.48 5.45Q283.74 5.61 283.86 5.75ZM303.00 10.72L303.00 10.72L303.00 10.72Q303.37 10.72 303.58 10.98L303.58 10.98L303.58 10.98Q303.79 11.23 303.79 11.68L303.79 11.68L303.79 11.68Q303.79 11.79 303.77 11.91L303.77 11.91L303.77 11.91Q303.76 12.03 303.73 12.11L303.73 12.11L303.73 12.11Q303.44 12.04 303.09 12.03L303.09 12.03L303.09 12.03Q303.00 12.64 302.64 13.32L302.64 13.32L302.64 13.32Q302.27 14 301.76 14.60L301.76 14.60L301.76 14.60Q301.24 15.19 300.62 15.64L300.62 15.64L300.62 15.64Q300.01 16.09 299.40 16.24L299.40 16.24L299.40 16.24Q297.53 16.20 296.67 15.27L296.67 15.27L296.67 15.27Q295.81 14.34 295.81 12.36L295.81 12.36L295.81 12.36Q295.81 10.92 296.34 9.57L296.34 9.57L296.34 9.57Q296.87 8.22 297.75 7.17L297.75 7.17L297.75 7.17Q298.63 6.12 299.77 5.48L299.77 5.48L299.77 5.48Q300.92 4.84 302.15 4.84L302.15 4.84L302.15 4.84Q303.11 4.84 303.65 5.25L303.65 5.25L303.65 5.25Q304.19 5.66 304.19 6.40L304.19 6.40L304.19 6.40Q304.19 6.89 303.96 7.31L303.96 7.31L303.96 7.31Q303.73 7.73 303.20 8.22L303.20 8.22L303.20 8.22Q302.88 8.12 302.64 7.88L302.64 7.88L302.64 7.88Q302.40 7.63 302.34 7.31L302.34 7.31L302.34 7.31Q302.82 6.96 303.02 6.66L303.02 6.66L303.02 6.66Q303.21 6.37 303.21 5.96L303.21 5.96L303.21 5.96Q303.21 5.32 302.44 5.32L302.44 5.32L302.44 5.32Q301.81 5.32 301.09 5.79L301.09 5.79L301.09 5.79Q300.37 6.26 299.64 7.14L299.64 7.14L299.64 7.14Q298.61 8.39 298.13 9.71L298.13 9.71L298.13 9.71Q297.65 11.03 297.65 12.68L297.65 12.68L297.65 12.68Q297.65 13.30 297.78 13.80L297.78 13.80L297.78 13.80Q297.91 14.31 298.12 14.69L298.12 14.69L298.12 14.69Q298.33 15.06 298.61 15.29L298.61 15.29L298.61 15.29Q298.90 15.51 299.24 15.54L299.24 15.54L299.24 15.54Q299.68 15.44 300.13 15.09L300.13 15.09L300.13 15.09Q300.58 14.73 300.95 14.25L300.95 14.25L300.95 14.25Q301.32 13.76 301.58 13.21L301.58 13.21L301.58 13.21Q301.84 12.66 301.90 12.15L301.90 12.15L301.90 12.15Q301.50 12.24 301.15 12.31L301.15 12.31L301.15 12.31Q300.79 12.39 300.47 12.39L300.47 12.39L300.47 12.39Q300.05 12.39 299.73 12.18L299.73 12.18L299.73 12.18Q299.42 11.97 299.31 11.61L299.31 11.61L299.31 11.61Q299.56 11.47 300.04 11.31L300.04 11.31L300.04 11.31Q300.52 11.16 301.07 11.03L301.07 11.03L301.07 11.03Q301.62 10.89 302.14 10.81L302.14 10.81L302.14 10.81Q302.67 10.72 303.00 10.72ZM316.81 14.36L316.81 14.36L316.81 14.36Q316.81 13.78 317.00 12.85L317.00 12.85L317.00 12.85Q317.20 11.93 317.52 10.88L317.52 10.88L317.52 10.88Q316.60 10.95 315.67 11.06L315.67 11.06L315.67 11.06Q314.73 11.17 314.05 11.19L314.05 11.19L314.05 11.19Q313.42 12.66 313.05 13.89L313.05 13.89L313.05 13.89Q312.68 15.13 312.47 16.31L312.47 16.31L312.47 16.31Q311.93 16.18 311.58 15.87L311.58 15.87L311.58 15.87Q311.23 15.55 310.94 15.08L310.94 15.08L310.94 15.08Q311.05 14.85 311.20 14.50L311.20 14.50L311.20 14.50Q311.35 14.15 311.55 13.66L311.55 13.66L311.55 13.66Q311.75 13.16 312.01 12.50L312.01 12.50L312.01 12.50Q312.27 11.83 312.61 10.95L312.61 10.95L312.61 10.95Q312.14 10.75 311.99 10.40L311.99 10.40L311.99 10.40Q312.06 10.35 312.31 10.28L312.31 10.28L312.31 10.28Q312.55 10.22 312.91 10.15L312.91 10.15L313.10 9.70L313.10 9.70Q313.39 8.95 313.58 8.43L313.58 8.43L313.58 8.43Q313.77 7.91 313.90 7.41L313.90 7.41L313.90 7.41Q314.03 6.92 314.15 6.31L314.15 6.31L314.15 6.31Q314.27 5.71 314.44 4.79L314.44 4.79L314.44 4.79Q315.03 4.90 315.51 5.31L315.51 5.31L315.51 5.31Q315.99 5.71 316.34 6.29L316.34 6.29L316.34 6.29Q316.22 6.45 316.04 6.79L316.04 6.79L316.04 6.79Q315.85 7.13 315.64 7.59L315.64 7.59L315.64 7.59Q315.42 8.06 315.17 8.64L315.17 8.64L315.17 8.64Q314.92 9.23 314.62 9.87L314.62 9.87L314.62 9.87Q315.49 9.76 316.38 9.66L316.38 9.66L316.38 9.66Q317.27 9.56 317.95 9.52L317.95 9.52L317.95 9.52Q318.21 8.79 318.48 8.10L318.48 8.10L318.48 8.10Q318.75 7.41 319.02 6.83L319.02 6.83L319.02 6.83Q319.28 6.26 319.53 5.82L319.53 5.82L319.53 5.82Q319.77 5.39 319.97 5.18L319.97 5.18L319.97 5.18Q320.11 5.19 320.34 5.29L320.34 5.29L320.34 5.29Q320.57 5.38 320.81 5.50L320.81 5.50L320.81 5.50Q321.05 5.63 321.24 5.78L321.24 5.78L321.24 5.78Q321.44 5.92 321.51 6.05L321.51 6.05L321.51 6.05Q321.26 6.29 321.01 6.66L321.01 6.66L321.01 6.66Q320.75 7.04 320.51 7.53L320.51 7.53L320.51 7.53Q320.26 8.02 320.03 8.60L320.03 8.60L320.03 8.60Q319.79 9.17 319.58 9.79L319.58 9.79L319.58 9.79Q319.86 10.04 319.86 10.42L319.86 10.42L319.86 10.42Q319.86 10.68 319.75 10.91L319.75 10.91L319.75 10.91Q319.62 10.88 319.49 10.87L319.49 10.87L319.49 10.87Q319.37 10.86 319.23 10.85L319.23 10.85L319.23 10.85Q318.99 11.61 318.79 12.35L318.79 12.35L318.79 12.35Q318.60 13.09 318.47 13.76L318.47 13.76L318.47 13.76Q318.33 14.43 318.25 14.99L318.25 14.99L318.25 14.99Q318.18 15.55 318.18 15.93L318.18 15.93L318.18 15.93Q318.18 16.07 318.19 16.16L318.19 16.16L318.19 16.16Q318.19 16.24 318.21 16.30L318.21 16.30L318.21 16.30Q317.90 16.28 317.76 16.19L317.76 16.19L317.76 16.19Q317.62 16.10 317.55 16.00L317.55 16.00L317.55 16.00Q317.48 15.89 317.42 15.79L317.42 15.79L317.42 15.79Q317.37 15.68 317.24 15.62L317.24 15.62L317.24 15.62Q317.14 15.58 317.06 15.43L317.06 15.43L317.06 15.43Q316.97 15.27 316.92 15.08L316.92 15.08L316.92 15.08Q316.86 14.88 316.83 14.69L316.83 14.69L316.83 14.69Q316.81 14.49 316.81 14.36ZM344.58 4.98L344.58 4.98L344.58 4.98Q344.85 5.10 345.13 5.27L345.13 5.27L345.13 5.27Q345.41 5.45 345.65 5.63L345.65 5.63L345.65 5.63Q345.88 5.81 346.05 5.98L346.05 5.98L346.05 5.98Q346.21 6.16 346.22 6.27L346.22 6.27L346.22 6.27Q345.98 6.22 345.74 6.20L345.74 6.20L345.74 6.20Q345.51 6.17 345.31 6.17L345.31 6.17L345.31 6.17Q344.68 6.17 344.06 6.48L344.06 6.48L344.06 6.48Q343.43 6.79 342.87 7.32L342.87 7.32L342.87 7.32Q342.31 7.85 341.84 8.57L341.84 8.57L341.84 8.57Q341.36 9.28 341.02 10.09L341.02 10.09L341.02 10.09Q340.68 10.91 340.48 11.77L340.48 11.77L340.48 11.77Q340.28 12.64 340.28 13.48L340.28 13.48L340.28 13.48Q340.28 14.57 340.65 15.11L340.65 15.11L340.65 15.11Q341.01 15.64 341.71 15.64L341.71 15.64L341.71 15.64Q342.05 15.64 342.44 15.51L342.44 15.51L342.44 15.51Q342.83 15.37 343.24 15.13L343.24 15.13L343.24 15.13Q343.64 14.90 344.04 14.56L344.04 14.56L344.04 14.56Q344.43 14.22 344.76 13.82L344.76 13.82L344.76 13.82Q345.25 13.23 345.65 12.48L345.65 12.48L345.65 12.48Q346.04 11.73 346.31 10.89L346.31 10.89L346.31 10.89Q346.58 10.05 346.73 9.16L346.73 9.16L346.73 9.16Q346.88 8.27 346.88 7.42L346.88 7.42L346.88 7.42Q346.88 7.08 346.86 6.85L346.86 6.85L346.86 6.85Q346.85 6.62 346.83 6.46L346.83 6.46L346.83 6.46Q346.81 6.30 346.79 6.20L346.79 6.20L346.79 6.20Q346.78 6.10 346.77 6.03L346.77 6.03L346.77 6.03Q346.93 6.12 347.14 6.24L347.14 6.24L347.14 6.24Q347.34 6.36 347.51 6.59L347.51 6.59L347.51 6.59Q347.69 6.82 347.81 7.20L347.81 7.20L347.81 7.20Q347.93 7.57 347.93 8.18L347.93 8.18L347.93 8.18Q347.93 9.16 347.70 10.10L347.70 10.10L347.70 10.10Q347.47 11.05 347.05 11.90L347.05 11.90L347.05 11.90Q346.64 12.75 346.08 13.50L346.08 13.50L346.08 13.50Q345.52 14.24 344.88 14.80L344.88 14.80L344.88 14.80Q344.04 15.54 343.08 15.95L343.08 15.95L343.08 15.95Q342.13 16.35 341.25 16.35L341.25 16.35L341.25 16.35Q339.96 16.35 339.28 15.53L339.28 15.53L339.28 15.53Q338.60 14.71 338.60 13.12L338.60 13.12L338.60 13.12Q338.60 12.26 338.79 11.31L338.79 11.31L338.79 11.31Q338.98 10.36 339.32 9.44L339.32 9.44L339.32 9.44Q339.67 8.51 340.14 7.68L340.14 7.68L340.14 7.68Q340.62 6.85 341.19 6.21L341.19 6.21L341.19 6.21Q341.75 5.57 342.40 5.19L342.40 5.19L342.40 5.19Q343.06 4.82 343.74 4.82L343.74 4.82L343.74 4.82Q343.97 4.82 344.16 4.85L344.16 4.85L344.16 4.85Q344.36 4.89 344.58 4.98ZM357.35 6.69L357.35 6.69L357.35 6.69Q356.79 6.69 356.49 6.38L356.49 6.38L356.49 6.38Q356.19 6.06 356.19 5.61L356.19 5.61L356.19 5.61Q356.19 5.50 356.22 5.35L356.22 5.35L356.22 5.35Q356.26 5.19 356.31 5.08L356.31 5.08L356.31 5.08Q356.50 5.17 356.85 5.20L356.85 5.20L356.85 5.20Q357.21 5.24 357.69 5.24L357.69 5.24L357.69 5.24Q358.40 5.24 359.30 5.17L359.30 5.17L359.30 5.17Q360.21 5.11 361.03 5.04L361.03 5.04L361.03 5.04Q361.86 4.97 362.49 4.91L362.49 4.91L362.49 4.91Q363.12 4.84 363.30 4.84L363.30 4.84L363.30 4.84Q363.82 4.84 364.05 5.23L364.05 5.23L364.05 5.23Q364.28 5.61 364.39 6.26L364.39 6.26L364.39 6.26Q364.03 6.23 363.67 6.21L363.67 6.21L363.67 6.21Q363.31 6.19 363.06 6.19L363.06 6.19L363.06 6.19Q362.61 6.19 362.16 6.22L362.16 6.22L362.16 6.22Q361.70 6.24 361.24 6.30L361.24 6.30L361.24 6.30Q361.05 6.71 360.81 7.26L360.81 7.26L360.81 7.26Q360.57 7.81 360.34 8.41L360.34 8.41L360.34 8.41Q360.11 9.02 359.90 9.61L359.90 9.61L359.90 9.61Q359.69 10.21 359.53 10.68L359.53 10.68L359.53 10.68Q359.23 11.61 359.00 12.39L359.00 12.39L359.00 12.39Q358.76 13.17 358.59 13.85L358.59 13.85L358.59 13.85Q358.41 14.53 358.29 15.15L358.29 15.15L358.29 15.15Q358.16 15.76 358.06 16.35L358.06 16.35L358.06 16.35Q357.13 16.21 356.50 15.18L356.50 15.18L356.50 15.18Q356.61 14.74 356.77 14.23L356.77 14.23L356.77 14.23Q356.93 13.72 357.15 13.07L357.15 13.07L357.15 13.07Q357.36 12.42 357.66 11.59L357.66 11.59L357.66 11.59Q357.95 10.77 358.33 9.72L358.33 9.72L358.33 9.72Q358.47 9.32 358.62 8.90L358.62 8.90L358.62 8.90Q358.78 8.47 358.93 8.05L358.93 8.05L358.93 8.05Q359.07 7.63 359.19 7.24L359.19 7.24L359.19 7.24Q359.31 6.85 359.39 6.52L359.39 6.52L359.39 6.52Q358.81 6.59 358.28 6.64L358.28 6.64L358.28 6.64Q357.76 6.69 357.35 6.69ZM375.27 14.36L375.27 14.36L375.27 14.36Q375.27 13.78 375.47 12.85L375.47 12.85L375.47 12.85Q375.66 11.93 375.98 10.88L375.98 10.88L375.98 10.88Q375.06 10.95 374.13 11.06L374.13 11.06L374.13 11.06Q373.20 11.17 372.51 11.19L372.51 11.19L372.51 11.19Q371.88 12.66 371.51 13.89L371.51 13.89L371.51 13.89Q371.14 15.13 370.93 16.31L370.93 16.31L370.93 16.31Q370.40 16.18 370.05 15.87L370.05 15.87L370.05 15.87Q369.70 15.55 369.40 15.08L369.40 15.08L369.40 15.08Q369.52 14.85 369.66 14.50L369.66 14.50L369.66 14.50Q369.81 14.15 370.01 13.66L370.01 13.66L370.01 13.66Q370.22 13.16 370.47 12.50L370.47 12.50L370.47 12.50Q370.73 11.83 371.07 10.95L371.07 10.95L371.07 10.95Q370.61 10.75 370.45 10.40L370.45 10.40L370.45 10.40Q370.52 10.35 370.77 10.28L370.77 10.28L370.77 10.28Q371.01 10.22 371.38 10.15L371.38 10.15L371.56 9.70L371.56 9.70Q371.85 8.95 372.04 8.43L372.04 8.43L372.04 8.43Q372.23 7.91 372.36 7.41L372.36 7.41L372.36 7.41Q372.50 6.92 372.62 6.31L372.62 6.31L372.62 6.31Q372.74 5.71 372.90 4.79L372.90 4.79L372.90 4.79Q373.49 4.90 373.97 5.31L373.97 5.31L373.97 5.31Q374.46 5.71 374.81 6.29L374.81 6.29L374.81 6.29Q374.68 6.45 374.50 6.79L374.50 6.79L374.50 6.79Q374.32 7.13 374.10 7.59L374.10 7.59L374.10 7.59Q373.88 8.06 373.63 8.64L373.63 8.64L373.63 8.64Q373.38 9.23 373.09 9.87L373.09 9.87L373.09 9.87Q373.95 9.76 374.84 9.66L374.84 9.66L374.84 9.66Q375.73 9.56 376.42 9.52L376.42 9.52L376.42 9.52Q376.67 8.79 376.94 8.10L376.94 8.10L376.94 8.10Q377.22 7.41 377.48 6.83L377.48 6.83L377.48 6.83Q377.75 6.26 377.99 5.82L377.99 5.82L377.99 5.82Q378.24 5.39 378.43 5.18L378.43 5.18L378.43 5.18Q378.57 5.19 378.80 5.29L378.80 5.29L378.80 5.29Q379.04 5.38 379.27 5.50L379.27 5.50L379.27 5.50Q379.51 5.63 379.71 5.78L379.71 5.78L379.71 5.78Q379.90 5.92 379.97 6.05L379.97 6.05L379.97 6.05Q379.72 6.29 379.47 6.66L379.47 6.66L379.47 6.66Q379.22 7.04 378.97 7.53L378.97 7.53L378.97 7.53Q378.73 8.02 378.49 8.60L378.49 8.60L378.49 8.60Q378.25 9.17 378.04 9.79L378.04 9.79L378.04 9.79Q378.32 10.04 378.32 10.42L378.32 10.42L378.32 10.42Q378.32 10.68 378.21 10.91L378.21 10.91L378.21 10.91Q378.08 10.88 377.96 10.87L377.96 10.87L377.96 10.87Q377.83 10.86 377.69 10.85L377.69 10.85L377.69 10.85Q377.45 11.61 377.26 12.35L377.26 12.35L377.26 12.35Q377.06 13.09 376.93 13.76L376.93 13.76L376.93 13.76Q376.80 14.43 376.72 14.99L376.72 14.99L376.72 14.99Q376.64 15.55 376.64 15.93L376.64 15.93L376.64 15.93Q376.64 16.07 376.65 16.16L376.65 16.16L376.65 16.16Q376.66 16.24 376.67 16.30L376.67 16.30L376.67 16.30Q376.36 16.28 376.22 16.19L376.22 16.19L376.22 16.19Q376.08 16.10 376.01 16.00L376.01 16.00L376.01 16.00Q375.94 15.89 375.89 15.79L375.89 15.79L375.89 15.79Q375.83 15.68 375.70 15.62L375.70 15.62L375.70 15.62Q375.61 15.58 375.52 15.43L375.52 15.43L375.52 15.43Q375.44 15.27 375.38 15.08L375.38 15.08L375.38 15.08Q375.33 14.88 375.30 14.69L375.30 14.69L375.30 14.69Q375.27 14.49 375.27 14.36ZM392.04 9.21L392.04 9.21L392.04 9.21Q392.50 9.21 392.76 9.46L392.76 9.46L392.76 9.46Q393.02 9.72 393.02 10.16L393.02 10.16L393.02 10.16Q393.02 10.28 393.00 10.39L393.00 10.39L393.00 10.39Q392.98 10.51 392.95 10.60L392.95 10.60L392.95 10.60Q392.77 10.57 392.55 10.55L392.55 10.55L392.55 10.55Q392.32 10.53 392.01 10.53L392.01 10.53L392.01 10.53Q391.41 10.53 390.80 10.63L390.80 10.63L390.80 10.63Q390.18 10.74 389.62 10.81L389.62 10.81L389.62 10.81Q389.30 11.55 389.03 12.24L389.03 12.24L389.03 12.24Q388.77 12.94 388.58 13.51L388.58 13.51L388.58 13.51Q388.39 14.08 388.28 14.50L388.28 14.50L388.28 14.50Q388.18 14.92 388.16 15.13L388.16 15.13L388.16 15.13Q389.30 14.90 390.45 14.73L390.45 14.73L390.45 14.73Q391.61 14.56 392.88 14.48L392.88 14.48L392.88 14.48Q393.04 14.71 393.14 14.99L393.14 14.99L393.14 14.99Q393.25 15.27 393.25 15.60L393.25 15.60L393.25 15.60Q393.25 15.68 393.25 15.78L393.25 15.78L393.25 15.78Q393.25 15.88 393.22 15.97L393.22 15.97L393.22 15.97Q392.83 15.96 392.39 15.95L392.39 15.95L392.39 15.95Q391.96 15.95 391.26 15.95L391.26 15.95L391.26 15.95Q390.80 15.95 390.38 15.97L390.38 15.97L390.38 15.97Q389.97 15.99 389.55 16.03L389.55 16.03L389.55 16.03Q389.13 16.07 388.66 16.14L388.66 16.14L388.66 16.14Q388.19 16.21 387.60 16.31L387.60 16.31L387.60 16.31Q386.96 16.06 386.36 15.08L386.36 15.08L386.36 15.08Q386.60 14.57 387.02 13.54L387.02 13.54L387.02 13.54Q387.45 12.52 388.11 10.79L388.11 10.79L388.11 10.79Q387.48 10.60 387.28 10.09L387.28 10.09L387.28 10.09Q387.35 10.02 387.69 9.92L387.69 9.92L387.69 9.92Q388.02 9.81 388.51 9.70L388.51 9.70L388.51 9.70Q388.72 9.16 388.87 8.75L388.87 8.75L388.87 8.75Q389.02 8.34 389.13 7.99L389.13 7.99L389.13 7.99Q389.24 7.63 389.33 7.29L389.33 7.29L389.33 7.29Q389.42 6.94 389.51 6.54L389.51 6.54L389.51 6.54Q389.02 6.51 388.74 6.27L388.74 6.27L388.74 6.27Q388.46 6.02 388.46 5.63L388.46 5.63L388.46 5.63Q388.46 5.52 388.49 5.36L388.49 5.36L388.49 5.36Q388.53 5.21 388.57 5.10L388.57 5.10L388.57 5.10Q388.85 5.14 389.11 5.15L389.11 5.15L389.11 5.15Q389.37 5.17 389.79 5.17L389.79 5.17L389.79 5.17Q390.67 5.17 391.44 5.12L391.44 5.12L391.44 5.12Q392.21 5.07 392.83 5.01L392.83 5.01L392.83 5.01Q393.46 4.96 393.90 4.91L393.90 4.91L393.90 4.91Q394.35 4.86 394.59 4.86L394.59 4.86L394.59 4.86Q394.91 4.86 395.16 5.19L395.16 5.19L395.16 5.19Q395.42 5.53 395.54 6.15L395.54 6.15L395.54 6.15Q395.11 6.10 394.83 6.09L394.83 6.09L394.83 6.09Q394.56 6.08 394.35 6.08L394.35 6.08L394.35 6.08Q393.58 6.08 392.94 6.15L392.94 6.15L392.94 6.15Q392.31 6.23 391.72 6.31L391.72 6.31L391.72 6.31Q391.64 6.44 391.53 6.64L391.53 6.64L391.53 6.64Q391.43 6.83 391.26 7.18L391.26 7.18L391.26 7.18Q391.09 7.53 390.84 8.06L390.84 8.06L390.84 8.06Q390.60 8.60 390.25 9.39L390.25 9.39L390.25 9.39Q390.78 9.31 391.25 9.26L391.25 9.26L391.25 9.26Q391.72 9.21 392.04 9.21ZM411.31 7.46L411.31 7.46L411.31 7.46Q411.31 8.13 411.00 8.73L411.00 8.73L411.00 8.73Q410.70 9.32 410.17 9.79L410.17 9.79L410.17 9.79Q409.64 10.26 408.93 10.58L408.93 10.58L408.93 10.58Q408.21 10.91 407.37 11.02L407.37 11.02L407.37 11.02Q407.58 11.65 407.88 12.31L407.88 12.31L407.88 12.31Q408.18 12.98 408.53 13.59L408.53 13.59L408.53 13.59Q408.88 14.21 409.26 14.73L409.26 14.73L409.26 14.73Q409.64 15.25 410.00 15.58L410.00 15.58L410.00 15.58Q409.93 15.72 409.80 15.86L409.80 15.86L409.80 15.86Q409.67 16.00 409.49 16.12L409.49 16.12L409.49 16.12Q409.32 16.24 409.13 16.32L409.13 16.32L409.13 16.32Q408.94 16.39 408.77 16.39L408.77 16.39L408.77 16.39Q408.46 16.39 408.18 16.10L408.18 16.10L408.18 16.10Q407.90 15.81 407.62 15.17L407.62 15.17L407.62 15.17Q407.33 14.53 407.01 13.52L407.01 13.52L407.01 13.52Q406.70 12.50 406.32 11.07L406.32 11.07L406.32 11.07Q406.17 11.07 406.01 11.07L406.01 11.07L406.01 11.07Q405.86 11.07 405.78 11.05L405.78 11.05L405.78 11.05Q405.68 10.99 405.57 10.85L405.57 10.85L405.57 10.85Q405.19 11.66 404.89 12.38L404.89 12.38L404.89 12.38Q404.60 13.09 404.37 13.76L404.37 13.76L404.37 13.76Q404.14 14.42 403.96 15.04L403.96 15.04L403.96 15.04Q403.79 15.67 403.66 16.31L403.66 16.31L403.66 16.31Q403.19 16.20 402.84 15.90L402.84 15.90L402.84 15.90Q402.49 15.61 402.18 15.08L402.18 15.08L402.18 15.08Q402.23 14.95 402.30 14.83L402.30 14.83L402.30 14.83Q402.36 14.71 402.46 14.50L402.46 14.50L402.46 14.50Q402.56 14.28 402.70 13.94L402.70 13.94L402.70 13.94Q402.85 13.61 403.09 13.05L403.09 13.05L403.09 13.05Q403.34 12.49 403.68 11.68L403.68 11.68L403.68 11.68Q404.03 10.86 404.52 9.70L404.52 9.70L404.52 9.70Q404.74 9.18 404.90 8.79L404.90 8.79L404.90 8.79Q405.06 8.40 405.19 8.04L405.19 8.04L405.19 8.04Q405.31 7.69 405.42 7.33L405.42 7.33L405.42 7.33Q405.52 6.97 405.64 6.51L405.64 6.51L405.64 6.51Q404.99 6.73 404.44 7.01L404.44 7.01L404.44 7.01Q403.89 7.28 403.52 7.59L403.52 7.59L403.52 7.59Q403.40 7.50 403.26 7.34L403.26 7.34L403.26 7.34Q403.13 7.17 403.02 6.96L403.02 6.96L403.02 6.96Q402.91 6.76 402.82 6.55L402.82 6.55L402.82 6.55Q402.74 6.34 402.72 6.17L402.72 6.17L402.72 6.17Q403.14 5.89 403.75 5.66L403.75 5.66L403.75 5.66Q404.36 5.42 405.05 5.24L405.05 5.24L405.05 5.24Q405.73 5.07 406.45 4.97L406.45 4.97L406.45 4.97Q407.16 4.87 407.78 4.87L407.78 4.87L407.78 4.87Q409.46 4.87 410.38 5.56L410.38 5.56L410.38 5.56Q411.31 6.26 411.31 7.46ZM407.72 6.02L407.89 6.29L407.89 6.29Q407.79 6.41 407.58 6.79L407.58 6.79L407.58 6.79Q407.37 7.17 407.10 7.69L407.10 7.69L407.10 7.69Q406.83 8.22 406.52 8.83L406.52 8.83L406.52 8.83Q406.22 9.45 405.94 10.05L405.94 10.05L405.94 10.05Q406.99 10.05 407.88 9.86L407.88 9.86L407.88 9.86Q408.76 9.66 409.40 9.30L409.40 9.30L409.40 9.30Q410.05 8.95 410.40 8.46L410.40 8.46L410.40 8.46Q410.76 7.98 410.76 7.39L410.76 7.39L410.76 7.39Q410.76 6.69 410.26 6.32L410.26 6.32L410.26 6.32Q409.75 5.95 408.70 5.95L408.70 5.95L408.70 5.95Q408.46 5.95 408.23 5.97L408.23 5.97L408.23 5.97Q407.99 5.99 407.72 6.02L407.72 6.02ZM427.45 5.74L427.45 5.74L427.45 5.74Q427.49 5.98 427.51 6.07L427.51 6.07L427.51 6.07Q427.53 6.16 427.53 6.31L427.53 6.31L427.53 6.31Q427.53 6.78 427.33 7.18L427.33 7.18L427.33 7.18Q427.13 7.57 426.78 7.74L426.78 7.74L426.78 7.74Q426.50 7.36 426.09 7.09L426.09 7.09L426.09 7.09Q425.68 6.82 425.20 6.64L425.20 6.64L425.20 6.64Q424.72 6.47 424.20 6.38L424.20 6.38L424.20 6.38Q423.68 6.30 423.19 6.30L423.19 6.30L423.19 6.30Q422.70 6.30 422.27 6.38L422.27 6.38L422.27 6.38Q421.85 6.45 421.52 6.59L421.52 6.59L421.52 6.59Q421.19 6.72 421.00 6.92L421.00 6.92L421.00 6.92Q420.81 7.11 420.81 7.36L420.81 7.36L420.81 7.36Q420.85 7.67 421.19 7.99L421.19 7.99L421.19 7.99Q421.53 8.30 422.02 8.60L422.02 8.60L422.02 8.60Q422.51 8.90 423.10 9.20L423.10 9.20L423.10 9.20Q423.70 9.49 424.27 9.76L424.27 9.76L424.27 9.76Q424.98 10.09 425.50 10.38L425.50 10.38L425.50 10.38Q426.02 10.67 426.36 11.01L426.36 11.01L426.36 11.01Q426.69 11.35 426.86 11.79L426.86 11.79L426.86 11.79Q427.03 12.22 427.03 12.84L427.03 12.84L427.03 12.84Q427.03 13.55 426.79 14.18L426.79 14.18L426.79 14.18Q426.55 14.80 426.10 15.26L426.10 15.26L426.10 15.26Q425.64 15.72 425.00 15.98L425.00 15.98L425.00 15.98Q424.35 16.24 423.56 16.24L423.56 16.24L423.56 16.24Q422.77 16.24 421.86 16.00L421.86 16.00L421.86 16.00Q420.95 15.76 420.16 15.35L420.16 15.35L420.16 15.35Q419.37 14.94 418.84 14.40L418.84 14.40L418.84 14.40Q418.32 13.86 418.32 13.26L418.32 13.26L418.32 13.26Q418.32 12.98 418.48 12.54L418.48 12.54L418.48 12.54Q418.64 12.11 419.06 11.63L419.06 11.63L419.06 11.63Q419.10 12.05 419.52 12.63L419.52 12.63L419.52 12.63Q419.93 13.20 420.76 13.69L420.76 13.69L420.76 13.69Q421.53 14.14 422.34 14.34L422.34 14.34L422.34 14.34Q423.16 14.55 423.88 14.55L423.88 14.55L423.88 14.55Q424.66 14.55 425.15 14.35L425.15 14.35L425.15 14.35Q425.64 14.15 425.92 13.88L425.92 13.88L425.92 13.88Q426.20 13.61 426.31 13.33L426.31 13.33L426.31 13.33Q426.43 13.05 426.44 12.88L426.44 12.88L426.44 12.88Q426.43 12.60 426.18 12.34L426.18 12.34L426.18 12.34Q425.94 12.08 425.52 11.84L425.52 11.84L425.52 11.84Q425.11 11.59 424.56 11.34L424.56 11.34L424.56 11.34Q424.02 11.09 423.43 10.84L423.43 10.84L423.43 10.84Q422.55 10.44 421.91 10.10L421.91 10.10L421.91 10.10Q421.27 9.76 420.86 9.40L420.86 9.40L420.86 9.40Q420.45 9.04 420.26 8.65L420.26 8.65L420.26 8.65Q420.07 8.26 420.07 7.76L420.07 7.76L420.07 7.76Q420.07 6.97 420.55 6.27L420.55 6.27L420.55 6.27Q421.02 5.57 421.92 5.21L421.92 5.21L421.92 5.21Q422.37 5.01 422.88 4.93L422.88 4.93L422.88 4.93Q423.39 4.84 423.88 4.84L423.88 4.84L423.88 4.84Q424.80 4.84 425.68 5.10L425.68 5.10L425.68 5.10Q426.57 5.35 427.45 5.74ZM435.48 15.71L435.48 15.71L435.48 15.71Q435.26 15.68 435.01 15.52L435.01 15.52L435.01 15.52Q434.77 15.36 434.70 15.16L434.70 15.16L434.70 15.16Q434.70 14.99 434.75 14.73L434.75 14.73L434.75 14.73Q434.80 14.46 434.87 14.19L434.87 14.19L434.87 14.19Q434.94 13.92 435.01 13.67L435.01 13.67L435.01 13.67Q435.08 13.43 435.11 13.30L435.11 13.30L435.11 13.30Q435.27 13.30 435.53 13.38L435.53 13.38L435.53 13.38Q435.79 13.47 436.06 13.62L436.06 13.62L436.06 13.62Q436.34 13.76 436.58 13.95L436.58 13.95L436.58 13.95Q436.83 14.14 436.95 14.34L436.95 14.34L436.95 14.34Q436.83 14.62 436.63 14.87L436.63 14.87L436.63 14.87Q436.44 15.12 436.22 15.31L436.22 15.31L436.22 15.31Q436.00 15.50 435.81 15.60L435.81 15.60L435.81 15.60Q435.61 15.71 435.48 15.71Z"></path></g></svg>