<svg data-v-423bf9ae="" xmlns="http://www.w3.org/2000/svg" viewBox="0 0 368.19608325869956 60" class="font"><!----><!----><!----><g data-v-423bf9ae="" id="e6e705f6-2c51-4c3d-9378-f43aa9214984" fill="black" transform="matrix(13.683009548051917,0,0,13.683009548051917,0.06841696137445297,-73.40934213983188)"><path d="M2.78 9.06L2.78 9.06L2.78 9.06Q3.10 8.88 3.15 9.19L3.15 9.19L3.15 9.19Q3.18 9.32 3.01 9.44L3.01 9.44L3.01 9.44Q2.94 9.50 2.87 9.53L2.87 9.53L2.87 9.53Q2.81 9.57 2.75 9.59L2.75 9.59L2.75 9.59Q2.60 9.66 2.47 9.69L2.47 9.69L2.47 9.69Q2.34 9.72 2.25 9.73L2.25 9.73L2.25 9.73Q2.07 9.75 1.87 9.75L1.87 9.75L1.87 9.75Q1.67 9.75 1.46 9.71L1.46 9.71L1.46 9.71Q1.01 9.65 0.74 9.41L0.74 9.41L0.74 9.41Q0.49 9.19 0.32 8.89L0.32 8.89L0.32 8.89Q0.16 8.59 0.05 8.29L0.05 8.29L0.04 8.24L0.04 8.24Q-0.02 8.05-0.00 7.80L-0.00 7.80L-0.00 7.80Q0.01 7.56 0.01 7.35L0.01 7.35L0.01 7.35Q0.01 7.18 0.01 7.06L0.01 7.06L0.01 7.06Q0.02 6.93 0.05 6.84L0.05 6.84L0.05 6.84Q0.10 6.67 0.27 6.38L0.27 6.38L0.27 6.38Q0.45 6.05 0.68 5.81L0.68 5.81L0.68 5.81Q0.92 5.57 1.31 5.49L1.31 5.49L1.31 5.49Q1.42 5.48 1.67 5.41L1.67 5.41L1.67 5.41Q1.74 5.39 1.84 5.37L1.84 5.37L1.84 5.37Q1.93 5.36 2.04 5.37L2.04 5.37L2.04 5.37Q2.13 5.37 2.25 5.39L2.25 5.39L2.25 5.39Q2.37 5.41 2.53 5.44L2.53 5.44L2.53 5.44Q2.64 5.48 2.86 5.58L2.86 5.58L2.86 5.58Q3.08 5.67 3.12 5.82L3.12 5.82L3.12 5.82Q3.13 5.88 3.10 5.94L3.10 5.94L3.10 5.94Q3.04 6.04 2.96 6.06L2.96 6.06L2.96 6.06Q2.91 6.08 2.84 6.06L2.84 6.06L2.84 6.06Q2.77 6.05 2.67 6.00L2.67 6.00L2.67 6.00Q2.53 5.93 2.41 5.88L2.41 5.88L2.41 5.88Q2.30 5.83 2.18 5.81L2.18 5.81L2.18 5.81Q2.06 5.78 1.93 5.79L1.93 5.79L1.93 5.79Q1.80 5.80 1.65 5.84L1.65 5.84L1.65 5.84Q1.30 5.95 1.16 6.02L1.16 6.02L1.16 6.02Q1.00 6.10 0.80 6.41L0.80 6.41L0.80 6.41Q0.64 6.65 0.55 6.91L0.55 6.91L0.55 6.91Q0.46 7.18 0.45 7.45L0.45 7.45L0.45 7.45Q0.44 7.73 0.50 8.00L0.50 8.00L0.50 8.00Q0.55 8.28 0.68 8.53L0.68 8.53L0.68 8.54L0.68 8.54L0.68 8.54Q0.98 9.08 1.52 9.22L1.52 9.22L1.52 9.22Q1.92 9.32 2.14 9.26L2.14 9.26L2.14 9.26Q2.20 9.26 2.26 9.24L2.26 9.24L2.26 9.24Q2.31 9.23 2.37 9.21L2.37 9.21L2.37 9.21Q2.60 9.17 2.78 9.06ZM7.43 5.67L7.43 5.67L7.43 5.67Q7.57 5.82 7.66 5.99L7.66 5.99L7.66 5.99Q7.75 6.16 7.83 6.34L7.83 6.34L7.83 6.34Q7.93 6.54 7.89 6.74L7.89 6.74L7.89 6.74Q7.85 6.94 7.67 7.13L7.67 7.13L7.67 7.13Q7.53 7.28 7.19 7.37L7.19 7.37L7.19 7.37Q7.07 7.40 6.93 7.44L6.93 7.44L6.93 7.44Q6.79 7.48 6.73 7.60L6.73 7.60L6.73 7.60Q6.69 7.72 6.75 7.84L6.75 7.84L6.75 7.84Q6.82 7.97 6.86 8.05L6.86 8.05L6.86 8.05Q6.90 8.13 6.93 8.18L6.93 8.18L6.93 8.18Q6.97 8.24 7.02 8.33L7.02 8.33L7.02 8.33Q7.08 8.42 7.15 8.52L7.15 8.52L7.15 8.52Q7.31 8.74 7.48 8.93L7.48 8.93L7.48 8.93Q7.66 9.13 7.83 9.30L7.83 9.30L7.87 9.34L7.87 9.34Q8.02 9.49 7.88 9.63L7.88 9.63L7.88 9.63Q7.72 9.79 7.57 9.64L7.57 9.64L7.57 9.64Q7.46 9.52 7.37 9.43L7.37 9.43L7.37 9.43Q7.28 9.34 7.21 9.26L7.21 9.26L7.21 9.26Q7.04 9.05 6.90 8.83L6.90 8.83L6.90 8.83Q6.79 8.67 6.69 8.53L6.69 8.53L6.69 8.53Q6.58 8.39 6.49 8.23L6.49 8.23L6.49 8.23Q6.21 7.74 5.81 7.58L5.81 7.58L5.81 7.58Q5.38 7.42 5.18 7.70L5.18 7.70L5.18 7.70Q5.12 7.80 5.12 7.92L5.12 7.92L5.12 9.40L5.12 9.49L5.12 9.49Q5.12 9.69 4.91 9.70L4.91 9.70L4.91 9.70Q4.70 9.69 4.70 9.44L4.70 9.44L4.70 9.44Q4.70 9.28 4.71 9.12L4.71 9.12L4.71 9.12Q4.72 8.95 4.72 8.76L4.72 8.76L4.72 8.76Q4.73 8.63 4.72 8.49L4.72 8.49L4.72 8.49Q4.71 8.35 4.71 8.22L4.71 8.22L4.71 8.22Q4.71 8.09 4.72 7.96L4.72 7.96L4.72 7.96Q4.72 7.83 4.72 7.70L4.72 7.70L4.72 7.70Q4.73 7.40 4.70 7.07L4.70 7.07L4.70 7.07Q4.70 6.84 4.71 6.61L4.71 6.61L4.71 6.61Q4.72 6.38 4.72 6.14L4.72 6.14L4.72 6.14Q4.71 6.02 4.71 5.86L4.71 5.86L4.71 5.86Q4.71 5.71 4.75 5.58L4.75 5.58L4.75 5.58Q4.87 5.42 5.33 5.42L5.33 5.42L5.54 5.42L5.54 5.42Q5.79 5.42 6.04 5.44L6.04 5.44L6.04 5.44Q6.29 5.46 6.54 5.45L6.54 5.45L6.54 5.45Q7.10 5.42 7.43 5.67ZM5.51 7.15L5.51 7.15L5.51 7.15Q5.77 7.16 5.97 7.16L5.97 7.16L5.97 7.16Q6.17 7.16 6.30 7.14L6.30 7.14L6.30 7.14Q6.43 7.13 6.59 7.11L6.59 7.11L6.59 7.11Q6.75 7.09 6.95 7.05L6.95 7.05L6.95 7.05Q7.33 6.97 7.45 6.69L7.45 6.69L7.45 6.69Q7.50 6.59 7.49 6.47L7.49 6.47L7.49 6.47Q7.47 6.34 7.41 6.24L7.41 6.24L7.41 6.24Q7.34 6.14 7.24 6.07L7.24 6.07L7.24 6.07Q7.14 6.00 7.03 5.94L7.03 5.94L7.03 5.94Q6.91 5.89 6.80 5.87L6.80 5.87L6.80 5.87Q6.51 5.82 6.23 5.83L6.23 5.83L6.23 5.83Q5.95 5.84 5.66 5.82L5.66 5.82L5.66 5.82Q5.61 5.82 5.55 5.82L5.55 5.82L5.55 5.82Q5.50 5.82 5.45 5.82L5.45 5.82L5.45 5.82Q5.30 5.81 5.23 5.89L5.23 5.89L5.23 5.89Q5.17 5.96 5.18 6.08L5.18 6.08L5.18 6.08Q5.19 6.12 5.19 6.23L5.19 6.23L5.19 6.23Q5.18 6.33 5.16 6.43L5.16 6.43L5.16 6.43Q5.15 6.52 5.14 6.62L5.14 6.62L5.14 6.62Q5.10 6.88 5.20 7.01L5.20 7.01L5.20 7.01Q5.29 7.14 5.51 7.15ZM9.93 9.70L9.93 9.70L9.93 9.70Q9.71 9.67 9.71 9.44L9.71 9.44L9.71 9.44Q9.71 9.07 9.71 8.72L9.71 8.72L9.71 8.72Q9.71 8.36 9.71 7.99L9.71 7.99L9.71 7.99Q9.71 7.79 9.73 7.58L9.73 7.58L9.73 7.58Q9.74 7.43 9.74 7.30L9.74 7.30L9.74 7.30Q9.74 7.17 9.73 7.06L9.73 7.06L9.73 7.06Q9.73 6.99 9.72 6.90L9.72 6.90L9.72 6.90Q9.71 6.80 9.71 6.67L9.71 6.67L9.71 6.67Q9.71 6.60 9.71 6.51L9.71 6.51L9.71 6.51Q9.71 6.41 9.72 6.28L9.72 6.28L9.72 6.28Q9.73 6.19 9.73 6.11L9.73 6.11L9.73 6.11Q9.73 6.04 9.73 5.99L9.73 5.99L9.73 5.84L9.73 5.83L9.73 5.78L9.73 5.78Q9.71 5.61 9.74 5.54L9.74 5.54L9.74 5.54Q9.76 5.49 9.83 5.44L9.83 5.44L9.83 5.44Q10.10 5.30 10.16 5.61L10.16 5.61L10.16 5.61Q10.21 5.84 10.22 6.07L10.22 6.07L10.22 6.07Q10.23 6.29 10.21 6.51L10.21 6.51L10.21 6.51L10.21 6.51Q10.19 6.73 10.20 6.94L10.20 6.94L10.20 6.94Q10.21 7.15 10.19 7.36L10.19 7.36L10.19 7.36Q10.17 7.55 10.16 7.68L10.16 7.68L10.16 7.68Q10.14 7.82 10.14 7.92L10.14 7.92L10.14 7.92Q10.12 8.05 10.12 8.20L10.12 8.20L10.12 8.20Q10.12 8.35 10.13 8.51L10.13 8.51L10.13 8.51Q10.14 8.54 10.14 8.59L10.14 8.59L10.14 8.59Q10.14 8.63 10.14 8.70L10.14 8.70L10.14 8.70Q10.14 8.80 10.14 8.91L10.14 8.91L10.14 8.91Q10.14 9.02 10.14 9.13L10.14 9.13L10.14 9.13Q10.14 9.20 10.15 9.27L10.15 9.27L10.15 9.27Q10.15 9.33 10.14 9.40L10.14 9.40L10.14 9.40Q10.14 9.54 10.14 9.55L10.14 9.55L10.14 9.55Q10.11 9.68 9.93 9.70ZM15.03 9.08L15.03 9.08L15.03 9.08Q14.92 9.23 14.81 9.34L14.81 9.34L14.81 9.34Q14.70 9.45 14.59 9.53L14.59 9.53L14.59 9.53Q14.47 9.60 14.33 9.66L14.33 9.66L14.33 9.66Q14.19 9.71 14.01 9.73L14.01 9.73L14.01 9.73Q13.92 9.74 13.83 9.74L13.83 9.74L13.83 9.74Q13.73 9.75 13.62 9.73L13.62 9.73L13.62 9.73Q13.47 9.72 13.33 9.72L13.33 9.72L13.33 9.72Q13.19 9.72 13.04 9.69L13.04 9.69L13.04 9.69Q12.71 9.61 12.49 9.46L12.49 9.46L12.49 9.46Q12.27 9.31 12.15 9.07L12.15 9.07L12.15 9.07Q12.00 8.74 12.33 8.73L12.33 8.73L12.33 8.73Q12.38 8.73 12.45 8.81L12.45 8.81L12.45 8.81Q12.52 8.89 12.56 8.93L12.56 8.93L12.56 8.93Q12.71 9.07 12.73 9.08L12.73 9.08L12.74 9.08L12.74 9.09L12.74 9.09Q13.07 9.32 13.62 9.32L13.62 9.32L13.63 9.32L13.64 9.32L13.64 9.32Q13.87 9.32 14.23 9.23L14.23 9.23L14.23 9.23Q14.59 9.14 14.70 8.87L14.70 8.87L14.70 8.87Q14.77 8.70 14.70 8.51L14.70 8.51L14.70 8.50L14.70 8.50Q14.53 8.14 14.04 8.02L14.04 8.02L13.20 7.80L13.20 7.80Q13.02 7.76 12.77 7.63L12.77 7.63L12.77 7.63Q12.64 7.56 12.54 7.51L12.54 7.51L12.54 7.51Q12.45 7.45 12.39 7.40L12.39 7.40L12.39 7.40Q12.11 7.19 12.06 6.99L12.06 6.99L12.06 6.99Q12.05 6.95 12.05 6.89L12.05 6.89L12.05 6.89Q12.05 6.83 12.05 6.74L12.05 6.74L12.05 6.74Q12.05 6.64 12.07 6.55L12.07 6.55L12.07 6.55Q12.08 6.46 12.09 6.36L12.09 6.36L12.09 6.36Q12.13 6.04 12.36 5.80L12.36 5.80L12.36 5.80Q12.46 5.69 12.61 5.62L12.61 5.62L12.61 5.62Q12.76 5.55 12.89 5.49L12.89 5.49L12.89 5.49Q13.08 5.40 13.29 5.40L13.29 5.40L13.29 5.40Q13.50 5.39 13.71 5.40L13.71 5.40L13.71 5.40Q14.38 5.42 14.75 5.87L14.75 5.87L14.75 5.87Q14.92 6.08 14.88 6.22L14.88 6.22L14.83 6.26L14.83 6.26Q14.72 6.32 14.57 6.19L14.57 6.19L14.57 6.19Q14.53 6.16 14.50 6.13L14.50 6.13L14.50 6.13Q14.46 6.09 14.43 6.06L14.43 6.06L14.43 6.06Q14.40 6.02 14.34 5.98L14.34 5.98L14.34 5.98Q14.29 5.95 14.22 5.91L14.22 5.91L14.21 5.90L14.18 5.90L14.18 5.90Q13.93 5.82 13.67 5.81L13.67 5.81L13.67 5.81Q13.41 5.80 13.13 5.86L13.13 5.86L13.13 5.86Q12.79 5.93 12.61 6.14L12.61 6.14L12.61 6.14Q12.43 6.34 12.43 6.67L12.43 6.67L12.43 6.69L12.44 6.70L12.44 6.70Q12.47 7.12 13.10 7.30L13.10 7.30L13.30 7.36L13.80 7.53L13.80 7.53Q13.92 7.57 14.03 7.62L14.03 7.62L14.03 7.62Q14.15 7.67 14.28 7.72L14.28 7.72L14.28 7.72Q14.47 7.81 14.64 7.90L14.64 7.90L14.64 7.90Q14.80 7.98 14.94 8.07L14.94 8.07L14.94 8.07Q15.03 8.13 15.08 8.22L15.08 8.22L15.08 8.22Q15.13 8.31 15.15 8.41L15.15 8.41L15.15 8.41Q15.17 8.51 15.17 8.62L15.17 8.62L15.17 8.62Q15.16 8.73 15.14 8.82L15.14 8.82L15.14 8.82Q15.13 8.89 15.10 8.96L15.10 8.96L15.10 8.96Q15.07 9.03 15.03 9.08ZM17.24 7.99L17.24 7.99L17.24 7.99Q17.25 8.16 17.24 8.33L17.24 8.33L17.24 8.33Q17.23 8.50 17.24 8.67L17.24 8.67L17.24 8.67Q17.25 9.21 17.24 9.49L17.24 9.49L17.24 9.49Q17.24 9.61 17.14 9.67L17.14 9.67L17.14 9.67Q17.03 9.73 16.95 9.68L16.95 9.68L16.95 9.68Q16.86 9.65 16.85 9.52L16.85 9.52L16.85 9.52Q16.84 9.30 16.83 9.08L16.83 9.08L16.83 9.08Q16.82 8.87 16.82 8.64L16.82 8.64L16.82 8.64Q16.83 8.37 16.83 8.09L16.83 8.09L16.83 8.09Q16.84 7.82 16.84 7.53L16.84 7.53L16.84 7.53Q16.84 7.37 16.84 7.20L16.84 7.20L16.84 7.20Q16.84 7.03 16.84 6.87L16.84 6.87L16.84 6.87Q16.84 6.68 16.83 6.47L16.83 6.47L16.83 6.47Q16.83 6.26 16.84 6.03L16.84 6.03L16.84 6.03Q16.85 5.99 16.85 5.93L16.85 5.93L16.85 5.93Q16.85 5.87 16.85 5.78L16.85 5.78L16.85 5.78Q16.85 5.63 16.86 5.61L16.86 5.61L16.86 5.61Q16.86 5.55 16.97 5.48L16.97 5.48L16.97 5.48Q17.06 5.42 17.34 5.41L17.34 5.41L17.34 5.41Q17.47 5.40 17.57 5.40L17.57 5.40L17.57 5.40Q17.67 5.39 17.74 5.39L17.74 5.39L17.74 5.39Q17.92 5.39 18.12 5.40L18.12 5.40L18.12 5.40Q18.31 5.41 18.51 5.42L18.51 5.42L18.51 5.42Q18.62 5.43 18.75 5.44L18.75 5.44L18.75 5.44Q18.89 5.45 19.04 5.48L19.04 5.48L19.04 5.48Q19.36 5.52 19.54 5.66L19.54 5.66L19.54 5.66L19.54 5.66Q19.78 5.86 19.90 6.09L19.90 6.09L19.90 6.09Q20.02 6.32 20.00 6.61L20.00 6.61L20.00 6.61Q20.00 6.81 19.91 6.96L19.91 6.96L19.91 6.96Q19.82 7.10 19.66 7.21L19.66 7.21L19.66 7.21Q19.37 7.42 19.02 7.49L19.02 7.49L19.02 7.49Q19.04 7.48 18.92 7.51L18.92 7.51L18.92 7.51Q18.72 7.54 18.51 7.53L18.51 7.53L18.51 7.53Q18.30 7.52 18.09 7.55L18.09 7.55L18.09 7.55Q18.03 7.55 17.93 7.56L17.93 7.56L17.93 7.56Q17.84 7.56 17.71 7.55L17.71 7.55L17.71 7.55Q17.47 7.54 17.36 7.62L17.36 7.62L17.36 7.62Q17.23 7.72 17.24 7.99ZM18.31 7.12L18.38 7.12L18.38 7.12Q18.64 7.12 18.89 7.10L18.89 7.10L18.89 7.10Q19.15 7.07 19.39 6.89L19.39 6.89L19.39 6.89Q19.64 6.70 19.59 6.44L19.59 6.44L19.59 6.44Q19.54 6.18 19.30 6.02L19.30 6.02L19.30 6.02Q19.25 5.97 19.18 5.94L19.18 5.94L19.18 5.94Q19.11 5.91 19.03 5.89L19.03 5.89L19.03 5.89Q18.68 5.81 18.38 5.85L18.38 5.85L18.38 5.85Q18.23 5.87 18.07 5.88L18.07 5.88L18.07 5.88Q17.92 5.89 17.75 5.89L17.75 5.89L17.75 5.89Q17.67 5.89 17.61 5.88L17.61 5.88L17.61 5.88Q17.55 5.88 17.51 5.87L17.51 5.87L17.51 5.87Q17.47 5.86 17.44 5.87L17.44 5.87L17.44 5.87Q17.27 5.91 17.25 6.17L17.25 6.17L17.25 6.17Q17.25 6.23 17.24 6.32L17.24 6.32L17.24 6.32Q17.24 6.41 17.24 6.52L17.24 6.52L17.24 6.52Q17.25 6.56 17.25 6.61L17.25 6.61L17.25 6.61Q17.25 6.66 17.25 6.73L17.25 6.73L17.25 6.73Q17.26 6.97 17.40 7.08L17.40 7.08L17.40 7.08Q17.53 7.19 17.85 7.18L17.85 7.18L17.85 7.18Q17.96 7.17 18.08 7.16L18.08 7.16L18.08 7.16Q18.19 7.14 18.31 7.12L18.31 7.12ZM21.80 9.70L21.80 9.70L21.80 9.70Q21.58 9.67 21.58 9.44L21.58 9.44L21.58 9.44Q21.57 9.07 21.57 8.72L21.57 8.72L21.57 8.72Q21.57 8.36 21.57 7.99L21.57 7.99L21.57 7.99Q21.57 7.79 21.59 7.58L21.59 7.58L21.59 7.58Q21.61 7.43 21.61 7.30L21.61 7.30L21.61 7.30Q21.61 7.17 21.60 7.06L21.60 7.06L21.60 7.06Q21.59 6.99 21.59 6.90L21.59 6.90L21.59 6.90Q21.58 6.80 21.57 6.67L21.57 6.67L21.57 6.67Q21.57 6.60 21.58 6.51L21.58 6.51L21.58 6.51Q21.58 6.41 21.59 6.28L21.59 6.28L21.59 6.28Q21.59 6.19 21.60 6.11L21.60 6.11L21.60 6.11Q21.60 6.04 21.60 5.99L21.60 5.99L21.60 5.84L21.60 5.83L21.60 5.78L21.60 5.78Q21.58 5.61 21.61 5.54L21.61 5.54L21.61 5.54Q21.63 5.49 21.70 5.44L21.70 5.44L21.70 5.44Q21.96 5.30 22.03 5.61L22.03 5.61L22.03 5.61Q22.08 5.84 22.09 6.07L22.09 6.07L22.09 6.07Q22.10 6.29 22.08 6.51L22.08 6.51L22.08 6.51L22.08 6.51Q22.06 6.73 22.07 6.94L22.07 6.94L22.07 6.94Q22.08 7.15 22.06 7.36L22.06 7.36L22.06 7.36Q22.04 7.55 22.03 7.68L22.03 7.68L22.03 7.68Q22.01 7.82 22.00 7.92L22.00 7.92L22.00 7.92Q21.99 8.05 21.99 8.20L21.99 8.20L21.99 8.20Q21.99 8.35 22.00 8.51L22.00 8.51L22.00 8.51Q22.00 8.54 22.00 8.59L22.00 8.59L22.00 8.59Q22.00 8.63 22.00 8.70L22.00 8.70L22.00 8.70Q22.00 8.80 22.00 8.91L22.00 8.91L22.00 8.91Q22.00 9.02 22.01 9.13L22.01 9.13L22.01 9.13Q22.01 9.20 22.02 9.27L22.02 9.27L22.02 9.27Q22.02 9.33 22.01 9.40L22.01 9.40L22.01 9.40Q22.01 9.54 22.00 9.55L22.00 9.55L22.00 9.55Q21.98 9.68 21.80 9.70ZM25.83 6.51L25.83 6.51L25.83 6.51Q25.93 6.34 26.06 6.17L26.06 6.17L26.06 6.17Q26.19 6.01 26.30 5.83L26.30 5.83L26.30 5.83Q26.36 5.75 26.43 5.64L26.43 5.64L26.43 5.64Q26.50 5.54 26.58 5.48L26.58 5.48L26.58 5.48Q26.65 5.43 26.76 5.46L26.76 5.46L26.76 5.46Q27.00 5.51 26.84 5.78L26.84 5.78L26.84 5.78Q26.74 5.94 26.61 6.09L26.61 6.09L26.61 6.09Q26.49 6.25 26.39 6.42L26.39 6.42L26.39 6.42Q26.31 6.54 26.21 6.70L26.21 6.70L26.21 6.70Q26.10 6.86 25.96 7.05L25.96 7.05L25.96 7.05Q25.85 7.21 25.71 7.44L25.71 7.44L25.71 7.44Q25.57 7.68 25.66 7.85L25.66 7.85L25.66 7.85Q25.69 7.94 25.79 8.06L25.79 8.06L25.79 8.06Q25.89 8.18 25.95 8.25L25.95 8.25L26.17 8.53L26.17 8.53Q26.30 8.73 26.42 8.94L26.42 8.94L26.42 8.94Q26.54 9.15 26.67 9.34L26.67 9.34L26.70 9.39L26.70 9.39Q26.82 9.57 26.63 9.67L26.63 9.67L26.63 9.67Q26.45 9.78 26.33 9.60L26.33 9.60L26.33 9.60Q26.20 9.39 26.07 9.17L26.07 9.17L26.07 9.17Q25.94 8.96 25.83 8.73L25.83 8.73L25.83 8.72L25.83 8.72Q25.77 8.61 25.72 8.54L25.72 8.54L25.72 8.54Q25.67 8.46 25.63 8.42L25.63 8.42L25.63 8.42Q25.50 8.28 25.35 8.29L25.35 8.29L25.35 8.29Q25.17 8.32 25.04 8.61L25.04 8.61L25.04 8.61Q24.96 8.78 24.90 8.90L24.90 8.90L24.90 8.90Q24.84 9.02 24.81 9.07L24.81 9.07L24.81 9.07Q24.73 9.21 24.65 9.34L24.65 9.34L24.65 9.34Q24.57 9.47 24.49 9.60L24.49 9.60L24.49 9.60Q24.38 9.78 24.19 9.67L24.19 9.67L24.19 9.67Q24.00 9.56 24.12 9.39L24.12 9.39L24.12 9.39Q24.23 9.19 24.36 9.01L24.36 9.01L24.36 9.01Q24.49 8.83 24.63 8.65L24.63 8.65L24.64 8.63L24.64 8.63L24.64 8.63Q24.73 8.48 24.79 8.37L24.79 8.37L24.79 8.37Q24.85 8.26 24.88 8.19L24.88 8.19L24.88 8.19Q24.91 8.13 24.95 8.05L24.95 8.05L24.95 8.05Q24.99 7.96 25.02 7.88L25.02 7.88L25.02 7.88Q25.05 7.79 25.06 7.71L25.06 7.71L25.06 7.71Q25.07 7.62 25.04 7.55L25.04 7.55L25.04 7.54L25.04 7.54Q24.87 7.14 24.63 6.78L24.63 6.78L24.63 6.78Q24.38 6.42 24.14 6.06L24.14 6.06L24.01 5.85L24.01 5.85Q23.95 5.78 23.94 5.72L23.94 5.72L23.94 5.72Q23.92 5.66 23.92 5.62L23.92 5.62L23.92 5.62Q23.93 5.48 24.07 5.43L24.07 5.43L24.07 5.43Q24.23 5.39 24.30 5.54L24.30 5.54L24.42 5.77L24.42 5.77Q24.46 5.85 24.51 5.92L24.51 5.92L24.51 5.92Q24.55 6.00 24.60 6.06L24.60 6.06L24.60 6.06Q24.76 6.26 24.96 6.67L24.96 6.67L24.96 6.67Q25.03 6.78 25.10 6.91L25.10 6.91L25.10 6.91Q25.17 7.03 25.31 7.05L25.31 7.05L25.31 7.05Q25.46 7.08 25.61 6.89L25.61 6.89L25.61 6.89Q25.66 6.83 25.71 6.73L25.71 6.73L25.71 6.73Q25.76 6.64 25.83 6.51Z"></path></g><!----><!----></svg>